<?xml version="1.0" encoding="UTF-8" standalone="no"?>
<svg
   xmlns:dc="http://purl.org/dc/elements/1.1/"
   xmlns:cc="http://creativecommons.org/ns#"
   xmlns:rdf="http://www.w3.org/1999/02/22-rdf-syntax-ns#"
   xmlns:svg="http://www.w3.org/2000/svg"
   xmlns="http://www.w3.org/2000/svg"
   version="1.1"
   height="128"
   width="128"
   id="Svg">
  <metadata
     id="metadata510">
    <rdf:RDF>
      <cc:Work
         rdf:about="">
        <dc:format>image/svg+xml</dc:format>
        <dc:type
           rdf:resource="http://purl.org/dc/dcmitype/StillImage" />
      </cc:Work>
    </rdf:RDF>
  </metadata>
  <defs
     id="defs3" />
  <path
     id="path2232"
     d="M 0 0 L 0 0.90039062 C 0.13082021 0.97779641 0.32643879 1.0949322 0.80859375 1.3984375 A 0.625 1.125 0 0 0 0.75 1.875 A 0.625 1.125 0 0 0 1.375 3 A 0.625 1.125 0 0 0 2 1.875 A 0.625 1.125 0 0 0 1.375 0.75 A 0.625 1.125 0 0 0 1.1542969 0.82226562 C 0.74085187 0.22761563 0.349533 0.092593 0.03125 0.15625 C 0.068908274 0.099762727 0.11684767 0.047802747 0.171875 0 L 0 0 z M 15.230469 0 C 15.145349 0.27061037 15.066701 0.59069586 15 1 C 15.370477 0.87370106 15.74216 0.26368098 16.136719 0 L 15.230469 0 z M 16.787109 0 C 16.932942 0.1224335 17.083117 0.33847725 17.238281 0.68554688 C 17.242481 0.78981488 17.25 0.885289 17.25 1 L 17 4 L 18 4 L 17.75 1 C 17.77344 0.92969 17.790654 0.85626212 17.808594 0.78320312 C 17.852244 0.80573313 18.212494 1.0232065 18.808594 1.3984375 A 0.625 1.125 0 0 0 18.75 1.875 A 0.625 1.125 0 0 0 19.375 3 A 0.625 1.125 0 0 0 20 1.875 A 0.625 1.125 0 0 0 19.375 0.75 A 0.625 1.125 0 0 0 19.154297 0.82226562 C 18.740851 0.22761563 18.349533 0.092593 18.03125 0.15625 C 18.068908 0.099762727 18.116848 0.047802747 18.171875 0 L 16.787109 0 z M 33.230469 0 C 33.145349 0.27061037 33.066701 0.59069586 33 1 C 33.370477 0.87370106 33.74216 0.26368098 34.136719 0 L 33.230469 0 z M 34.787109 0 C 34.932942 0.1224335 35.083117 0.33847725 35.238281 0.68554688 C 35.242481 0.78981488 35.25 0.885289 35.25 1 L 35 4 L 36 4 L 35.75 1 C 35.77344 0.92969 35.790654 0.85626212 35.808594 0.78320312 C 35.852244 0.80573313 36.212494 1.0232065 36.808594 1.3984375 A 0.625 1.125 0 0 0 36.75 1.875 A 0.625 1.125 0 0 0 37.375 3 A 0.625 1.125 0 0 0 38 1.875 A 0.625 1.125 0 0 0 37.375 0.75 A 0.625 1.125 0 0 0 37.154297 0.82226562 C 36.740851 0.22761563 36.349533 0.092593 36.03125 0.15625 C 36.068908 0.099762727 36.116848 0.047802747 36.171875 0 L 34.787109 0 z M 51.230469 0 C 51.145349 0.27061037 51.066701 0.59069586 51 1 C 51.370477 0.87370106 51.74216 0.26368098 52.136719 0 L 51.230469 0 z M 52.787109 0 C 52.932942 0.1224335 53.083117 0.33847725 53.238281 0.68554688 C 53.242481 0.78981488 53.25 0.885289 53.25 1 L 53 4 L 54 4 L 53.75 1 C 53.77344 0.92969 53.790654 0.85626212 53.808594 0.78320312 C 53.852244 0.80573313 54.212494 1.0232065 54.808594 1.3984375 A 0.625 1.125 0 0 0 54.75 1.875 A 0.625 1.125 0 0 0 55.375 3 A 0.625 1.125 0 0 0 56 1.875 A 0.625 1.125 0 0 0 55.375 0.75 A 0.625 1.125 0 0 0 55.154297 0.82226562 C 54.740851 0.22761563 54.349533 0.092593 54.03125 0.15625 C 54.068908 0.099762727 54.116848 0.047802747 54.171875 0 L 52.787109 0 z M 70.230469 0 C 70.145349 0.27061037 70.066701 0.59069586 70 1 C 70.370477 0.87370106 70.74216 0.26368098 71.136719 0 L 70.230469 0 z M 71.787109 0 C 71.932942 0.1224335 72.083117 0.33847725 72.238281 0.68554688 C 72.242481 0.78981488 72.25 0.885289 72.25 1 L 72 4 L 73 4 L 72.75 1 C 72.77344 0.92969 72.790654 0.85626212 72.808594 0.78320312 C 72.852244 0.80573313 73.212494 1.0232065 73.808594 1.3984375 A 0.625 1.125 0 0 0 73.75 1.875 A 0.625 1.125 0 0 0 74.375 3 A 0.625 1.125 0 0 0 75 1.875 A 0.625 1.125 0 0 0 74.375 0.75 A 0.625 1.125 0 0 0 74.154297 0.82226562 C 73.740851 0.22761563 73.349533 0.092593 73.03125 0.15625 C 73.068908 0.099762727 73.116848 0.047802747 73.171875 0 L 71.787109 0 z M 88.230469 0 C 88.145349 0.27061037 88.066701 0.59069586 88 1 C 88.370477 0.87370106 88.74216 0.26368098 89.136719 0 L 88.230469 0 z M 89.787109 0 C 89.932942 0.1224335 90.083117 0.33847725 90.238281 0.68554688 C 90.242481 0.78981488 90.25 0.885289 90.25 1 L 90 4 L 91 4 L 90.75 1 C 90.77344 0.92969 90.790654 0.85626212 90.808594 0.78320312 C 90.852244 0.80573313 91.212494 1.0232065 91.808594 1.3984375 A 0.625 1.125 0 0 0 91.75 1.875 A 0.625 1.125 0 0 0 92.375 3 A 0.625 1.125 0 0 0 93 1.875 A 0.625 1.125 0 0 0 92.375 0.75 A 0.625 1.125 0 0 0 92.154297 0.82226562 C 91.740851 0.22761563 91.349533 0.092593 91.03125 0.15625 C 91.068908 0.099762727 91.116848 0.047802747 91.171875 0 L 89.787109 0 z M 106.23047 0 C 106.14535 0.27061037 106.0667 0.59069586 106 1 C 106.37048 0.87370106 106.74216 0.26368098 107.13672 0 L 106.23047 0 z M 107.78711 0 C 107.93294 0.1224335 108.08312 0.33847725 108.23828 0.68554688 C 108.24248 0.78981488 108.25 0.885289 108.25 1 L 108 4 L 109 4 L 108.75 1 C 108.7734 0.92969 108.79059 0.85626212 108.80859 0.78320312 C 108.85219 0.80573313 109.21249 1.0232065 109.80859 1.3984375 A 0.625 1.125 0 0 0 109.75 1.875 A 0.625 1.125 0 0 0 110.375 3 A 0.625 1.125 0 0 0 111 1.875 A 0.625 1.125 0 0 0 110.375 0.75 A 0.625 1.125 0 0 0 110.1543 0.82226562 C 109.74085 0.22761563 109.34953 0.092593 109.03125 0.15625 C 109.06891 0.099762727 109.11685 0.047802747 109.17188 0 L 107.78711 0 z M 125.23047 0 C 125.14535 0.27061037 125.0667 0.59069586 125 1 C 125.37048 0.87370106 125.74216 0.26368098 126.13672 0 L 125.23047 0 z M 126.78711 0 C 126.93294 0.1224335 127.08312 0.33847725 127.23828 0.68554688 C 127.24248 0.78981488 127.25 0.885289 127.25 1 L 127 4 L 128 4 L 127.75 1 C 127.7734 0.92969 127.79059 0.85626212 127.80859 0.78320312 C 127.81693 0.78750975 127.96909 0.88209774 128 0.90039062 L 128 0 L 126.78711 0 z M 11.5 5 C 9.42652 5 8.6703291 6.5218419 8.3925781 7.8886719 C 8.0687031 6.9279419 7.452639 6 6.25 6 C 6.25 7.766294 7.807317 6.8091721 8.171875 8.9707031 C 7.518685 7.9801571 6.484428 7.027371 6 10 C 6.693789 9.763481 7.3892473 7.7864379 8.2382812 9.6855469 C 8.2424813 9.7898149 8.25 9.885289 8.25 10 L 8 13 L 9 13 L 8.75 10 C 8.77344 9.92969 8.7906537 9.8562621 8.8085938 9.7832031 C 8.8522437 9.8057331 9.2124938 10.023206 9.8085938 10.398438 A 0.625 1.125 0 0 0 9.75 10.875 A 0.625 1.125 0 0 0 10.375 12 A 0.625 1.125 0 0 0 11 10.875 A 0.625 1.125 0 0 0 10.375 9.75 A 0.625 1.125 0 0 0 10.154297 9.8222656 C 9.7408519 9.2276156 9.349533 9.092593 9.03125 9.15625 C 9.304688 8.746094 9.96875 8.53125 12 9 C 10.698809 6.722915 9.5143736 7.8297615 8.8378906 8.8828125 C 9.1679136 6.9691715 10.423819 7.367599 11.5 5 z M 29.5 5 C 27.42652 5 26.670329 6.5218419 26.392578 7.8886719 C 26.068703 6.9279419 25.452639 6 24.25 6 C 24.25 7.766294 25.807317 6.8091721 26.171875 8.9707031 C 25.518685 7.9801571 24.484428 7.027371 24 10 C 24.693789 9.763481 25.389247 7.7864379 26.238281 9.6855469 C 26.242481 9.7898149 26.25 9.885289 26.25 10 L 26 13 L 27 13 L 26.75 10 C 26.77344 9.92969 26.790654 9.8562621 26.808594 9.7832031 C 26.852244 9.8057331 27.212494 10.023206 27.808594 10.398438 A 0.625 1.125 0 0 0 27.75 10.875 A 0.625 1.125 0 0 0 28.375 12 A 0.625 1.125 0 0 0 29 10.875 A 0.625 1.125 0 0 0 28.375 9.75 A 0.625 1.125 0 0 0 28.154297 9.8222656 C 27.740851 9.2276156 27.349533 9.092593 27.03125 9.15625 C 27.304688 8.746094 27.96875 8.53125 30 9 C 28.698809 6.722915 27.514374 7.8297615 26.837891 8.8828125 C 27.167914 6.9691715 28.423819 7.367599 29.5 5 z M 47.5 5 C 45.42652 5 44.670329 6.5218419 44.392578 7.8886719 C 44.068703 6.9279419 43.452639 6 42.25 6 C 42.25 7.766294 43.807317 6.8091721 44.171875 8.9707031 C 43.518685 7.9801571 42.484428 7.027371 42 10 C 42.693789 9.763481 43.389247 7.7864379 44.238281 9.6855469 C 44.242481 9.7898149 44.25 9.885289 44.25 10 L 44 13 L 45 13 L 44.75 10 C 44.77344 9.92969 44.790654 9.8562621 44.808594 9.7832031 C 44.852244 9.8057331 45.212494 10.023206 45.808594 10.398438 A 0.625 1.125 0 0 0 45.75 10.875 A 0.625 1.125 0 0 0 46.375 12 A 0.625 1.125 0 0 0 47 10.875 A 0.625 1.125 0 0 0 46.375 9.75 A 0.625 1.125 0 0 0 46.154297 9.8222656 C 45.740851 9.2276156 45.349533 9.092593 45.03125 9.15625 C 45.304688 8.746094 45.96875 8.53125 48 9 C 46.698809 6.722915 45.514374 7.8297615 44.837891 8.8828125 C 45.167914 6.9691715 46.423819 7.367599 47.5 5 z M 66.5 5 C 64.42652 5 63.670329 6.5218419 63.392578 7.8886719 C 63.068703 6.9279419 62.452639 6 61.25 6 C 61.25 7.766294 62.807317 6.8091721 63.171875 8.9707031 C 62.518685 7.9801571 61.484428 7.027371 61 10 C 61.693789 9.763481 62.389247 7.7864379 63.238281 9.6855469 C 63.242481 9.7898149 63.25 9.885289 63.25 10 L 63 13 L 64 13 L 63.75 10 C 63.77344 9.92969 63.790654 9.8562621 63.808594 9.7832031 C 63.852244 9.8057331 64.212494 10.023206 64.808594 10.398438 A 0.625 1.125 0 0 0 64.75 10.875 A 0.625 1.125 0 0 0 65.375 12 A 0.625 1.125 0 0 0 66 10.875 A 0.625 1.125 0 0 0 65.375 9.75 A 0.625 1.125 0 0 0 65.154297 9.8222656 C 64.740851 9.2276156 64.349533 9.092593 64.03125 9.15625 C 64.304688 8.746094 64.96875 8.53125 67 9 C 65.698809 6.722915 64.514374 7.8297615 63.837891 8.8828125 C 64.167914 6.9691715 65.423819 7.367599 66.5 5 z M 84.5 5 C 82.42652 5 81.670329 6.5218419 81.392578 7.8886719 C 81.068703 6.9279419 80.452639 6 79.25 6 C 79.25 7.766294 80.807317 6.8091721 81.171875 8.9707031 C 80.518685 7.9801571 79.484428 7.027371 79 10 C 79.693789 9.763481 80.389247 7.7864379 81.238281 9.6855469 C 81.242481 9.7898149 81.25 9.885289 81.25 10 L 81 13 L 82 13 L 81.75 10 C 81.77344 9.92969 81.790654 9.8562621 81.808594 9.7832031 C 81.852244 9.8057331 82.212494 10.023206 82.808594 10.398438 A 0.625 1.125 0 0 0 82.75 10.875 A 0.625 1.125 0 0 0 83.375 12 A 0.625 1.125 0 0 0 84 10.875 A 0.625 1.125 0 0 0 83.375 9.75 A 0.625 1.125 0 0 0 83.154297 9.8222656 C 82.740851 9.2276156 82.349533 9.092593 82.03125 9.15625 C 82.304688 8.746094 82.96875 8.53125 85 9 C 83.698809 6.722915 82.514374 7.8297615 81.837891 8.8828125 C 82.167914 6.9691715 83.423819 7.367599 84.5 5 z M 102.5 5 C 100.42652 5 99.670329 6.5218419 99.392578 7.8886719 C 99.068703 6.9279419 98.452639 6 97.25 6 C 97.25 7.766294 98.807317 6.8091721 99.171875 8.9707031 C 98.518685 7.9801571 97.484428 7.027371 97 10 C 97.693789 9.763481 98.389247 7.7864379 99.238281 9.6855469 C 99.242481 9.7898149 99.25 9.885289 99.25 10 L 99 13 L 100 13 L 99.75 10 C 99.77344 9.92969 99.790654 9.8562621 99.808594 9.7832031 C 99.852244 9.8057331 100.21249 10.023206 100.80859 10.398438 A 0.625 1.125 0 0 0 100.75 10.875 A 0.625 1.125 0 0 0 101.375 12 A 0.625 1.125 0 0 0 102 10.875 A 0.625 1.125 0 0 0 101.375 9.75 A 0.625 1.125 0 0 0 101.1543 9.8222656 C 100.74085 9.2276156 100.34953 9.092593 100.03125 9.15625 C 100.30469 8.746094 100.96875 8.53125 103 9 C 101.69881 6.722915 100.51437 7.8297615 99.837891 8.8828125 C 100.16791 6.9691715 101.42382 7.367599 102.5 5 z M 120.5 5 C 118.42652 5 117.67033 6.5218419 117.39258 7.8886719 C 117.0687 6.9279419 116.45264 6 115.25 6 C 115.25 7.766294 116.80732 6.8091721 117.17188 8.9707031 C 116.51869 7.9801571 115.48443 7.027371 115 10 C 115.69379 9.763481 116.38925 7.7864379 117.23828 9.6855469 C 117.24248 9.7898149 117.25 9.885289 117.25 10 L 117 13 L 118 13 L 117.75 10 C 117.7734 9.92969 117.79059 9.8562621 117.80859 9.7832031 C 117.85219 9.8057331 118.21249 10.023206 118.80859 10.398438 A 0.625 1.125 0 0 0 118.75 10.875 A 0.625 1.125 0 0 0 119.375 12 A 0.625 1.125 0 0 0 120 10.875 A 0.625 1.125 0 0 0 119.375 9.75 A 0.625 1.125 0 0 0 119.1543 9.8222656 C 118.74085 9.2276156 118.34953 9.092593 118.03125 9.15625 C 118.30469 8.746094 118.96875 8.53125 121 9 C 119.69881 6.722915 118.51437 7.8297615 117.83789 8.8828125 C 118.16791 6.9691715 119.42382 7.367599 120.5 5 z M 2.5 14 C 1.2431641 14 0.47566969 14.561793 0 15.306641 L 0 17.271484 C 0.47487389 16.026531 1.5566505 16.07537 2.5 14 z M 20.5 14 C 18.42652 14 17.670329 15.521842 17.392578 16.888672 C 17.068703 15.927942 16.452639 15 15.25 15 C 15.25 16.766294 16.807317 15.809172 17.171875 17.970703 C 16.518685 16.980157 15.484428 16.027371 15 19 C 15.693789 18.763481 16.389247 16.786438 17.238281 18.685547 C 17.242481 18.789815 17.25 18.885289 17.25 19 L 17 22 L 18 22 L 17.75 19 C 17.77344 18.92969 17.790654 18.856262 17.808594 18.783203 C 17.852244 18.805733 18.212494 19.023207 18.808594 19.398438 A 0.625 1.125 0 0 0 18.75 19.875 A 0.625 1.125 0 0 0 19.375 21 A 0.625 1.125 0 0 0 20 19.875 A 0.625 1.125 0 0 0 19.375 18.75 A 0.625 1.125 0 0 0 19.154297 18.822266 C 18.740851 18.227616 18.349533 18.092593 18.03125 18.15625 C 18.304688 17.746094 18.96875 17.53125 21 18 C 19.698809 15.722915 18.514374 16.829762 17.837891 17.882812 C 18.167914 15.969171 19.423819 16.367599 20.5 14 z M 38.5 14 C 36.42652 14 35.670329 15.521842 35.392578 16.888672 C 35.068703 15.927942 34.452639 15 33.25 15 C 33.25 16.766294 34.807317 15.809172 35.171875 17.970703 C 34.518685 16.980157 33.484428 16.027371 33 19 C 33.693789 18.763481 34.389247 16.786438 35.238281 18.685547 C 35.242481 18.789815 35.25 18.885289 35.25 19 L 35 22 L 36 22 L 35.75 19 C 35.77344 18.92969 35.790654 18.856262 35.808594 18.783203 C 35.852244 18.805733 36.212494 19.023207 36.808594 19.398438 A 0.625 1.125 0 0 0 36.75 19.875 A 0.625 1.125 0 0 0 37.375 21 A 0.625 1.125 0 0 0 38 19.875 A 0.625 1.125 0 0 0 37.375 18.75 A 0.625 1.125 0 0 0 37.154297 18.822266 C 36.740851 18.227616 36.349533 18.092593 36.03125 18.15625 C 36.304688 17.746094 36.96875 17.53125 39 18 C 37.698809 15.722915 36.514374 16.829762 35.837891 17.882812 C 36.167914 15.969171 37.423819 16.367599 38.5 14 z M 56.5 14 C 54.42652 14 53.670329 15.521842 53.392578 16.888672 C 53.068703 15.927942 52.452639 15 51.25 15 C 51.25 16.766294 52.807317 15.809172 53.171875 17.970703 C 52.518685 16.980157 51.484428 16.027371 51 19 C 51.693789 18.763481 52.389247 16.786438 53.238281 18.685547 C 53.242481 18.789815 53.25 18.885289 53.25 19 L 53 22 L 54 22 L 53.75 19 C 53.77344 18.92969 53.790654 18.856262 53.808594 18.783203 C 53.852244 18.805733 54.212494 19.023207 54.808594 19.398438 A 0.625 1.125 0 0 0 54.75 19.875 A 0.625 1.125 0 0 0 55.375 21 A 0.625 1.125 0 0 0 56 19.875 A 0.625 1.125 0 0 0 55.375 18.75 A 0.625 1.125 0 0 0 55.154297 18.822266 C 54.740851 18.227616 54.349533 18.092593 54.03125 18.15625 C 54.304688 17.746094 54.96875 17.53125 57 18 C 55.698809 15.722915 54.514374 16.829762 53.837891 17.882812 C 54.167914 15.969171 55.423819 16.367599 56.5 14 z M 75.5 14 C 73.42652 14 72.670329 15.521842 72.392578 16.888672 C 72.068703 15.927942 71.452639 15 70.25 15 C 70.25 16.766294 71.807317 15.809172 72.171875 17.970703 C 71.518685 16.980157 70.484428 16.027371 70 19 C 70.693789 18.763481 71.389247 16.786438 72.238281 18.685547 C 72.242481 18.789815 72.25 18.885289 72.25 19 L 72 22 L 73 22 L 72.75 19 C 72.77344 18.92969 72.790654 18.856262 72.808594 18.783203 C 72.852244 18.805733 73.212494 19.023207 73.808594 19.398438 A 0.625 1.125 0 0 0 73.75 19.875 A 0.625 1.125 0 0 0 74.375 21 A 0.625 1.125 0 0 0 75 19.875 A 0.625 1.125 0 0 0 74.375 18.75 A 0.625 1.125 0 0 0 74.154297 18.822266 C 73.740851 18.227616 73.349533 18.092593 73.03125 18.15625 C 73.304688 17.746094 73.96875 17.53125 76 18 C 74.698809 15.722915 73.514374 16.829762 72.837891 17.882812 C 73.167914 15.969171 74.423819 16.367599 75.5 14 z M 93.5 14 C 91.42652 14 90.670329 15.521842 90.392578 16.888672 C 90.068703 15.927942 89.452639 15 88.25 15 C 88.25 16.766294 89.807317 15.809172 90.171875 17.970703 C 89.518685 16.980157 88.484428 16.027371 88 19 C 88.693789 18.763481 89.389247 16.786438 90.238281 18.685547 C 90.242481 18.789815 90.25 18.885289 90.25 19 L 90 22 L 91 22 L 90.75 19 C 90.77344 18.92969 90.790654 18.856262 90.808594 18.783203 C 90.852244 18.805733 91.212494 19.023207 91.808594 19.398438 A 0.625 1.125 0 0 0 91.75 19.875 A 0.625 1.125 0 0 0 92.375 21 A 0.625 1.125 0 0 0 93 19.875 A 0.625 1.125 0 0 0 92.375 18.75 A 0.625 1.125 0 0 0 92.154297 18.822266 C 91.740851 18.227616 91.349533 18.092593 91.03125 18.15625 C 91.304688 17.746094 91.96875 17.53125 94 18 C 92.698809 15.722915 91.514374 16.829762 90.837891 17.882812 C 91.167914 15.969171 92.423819 16.367599 93.5 14 z M 111.5 14 C 109.42652 14 108.67033 15.521842 108.39258 16.888672 C 108.0687 15.927942 107.45264 15 106.25 15 C 106.25 16.766294 107.80732 15.809172 108.17188 17.970703 C 107.51869 16.980157 106.48443 16.027371 106 19 C 106.69379 18.763481 107.38925 16.786438 108.23828 18.685547 C 108.24228 18.789815 108.25 18.885289 108.25 19 L 108 22 L 109 22 L 108.75 19 C 108.7734 18.92969 108.79059 18.856262 108.80859 18.783203 C 108.85219 18.805733 109.21249 19.023207 109.80859 19.398438 A 0.625 1.125 0 0 0 109.75 19.875 A 0.625 1.125 0 0 0 110.375 21 A 0.625 1.125 0 0 0 111 19.875 A 0.625 1.125 0 0 0 110.375 18.75 A 0.625 1.125 0 0 0 110.1543 18.822266 C 109.74085 18.227616 109.34953 18.092593 109.03125 18.15625 C 109.30469 17.746094 109.96875 17.53125 112 18 C 110.69881 15.722915 109.51437 16.829762 108.83789 17.882812 C 109.16791 15.969171 110.42382 16.367599 111.5 14 z M 125.25 15 C 125.25 16.766294 126.80732 15.809172 127.17188 17.970703 C 126.51869 16.980157 125.48443 16.027371 125 19 C 125.69379 18.763481 126.38925 16.786438 127.23828 18.685547 C 127.24228 18.789815 127.25 18.885289 127.25 19 L 127 22 L 128 22 L 127.75 19 C 127.7734 18.92969 127.79059 18.856262 127.80859 18.783203 C 127.81693 18.78751 127.96909 18.882098 128 18.900391 L 128 17.654297 C 127.94527 17.730511 127.88734 17.80583 127.83789 17.882812 C 127.87862 17.646615 127.93313 17.446784 128 17.271484 L 128 15.306641 C 127.69093 15.790614 127.50197 16.350343 127.39258 16.888672 C 127.0687 15.927942 126.45264 15 125.25 15 z M 1.6054688 16.685547 C 0.96603579 16.562713 0.41318184 17.078921 0 17.654297 L 0 18.900391 C 0.13082021 18.977796 0.32643879 19.094932 0.80859375 19.398438 A 0.625 1.125 0 0 0 0.75 19.875 A 0.625 1.125 0 0 0 1.375 21 A 0.625 1.125 0 0 0 2 19.875 A 0.625 1.125 0 0 0 1.375 18.75 A 0.625 1.125 0 0 0 1.1542969 18.822266 C 0.74085188 18.227616 0.349533 18.092593 0.03125 18.15625 C 0.304688 17.746094 0.96875 17.53125 3 18 C 2.5120534 17.146093 2.0399483 16.769009 1.6054688 16.685547 z M 11.5 23 C 9.42652 23 8.6703291 24.521842 8.3925781 25.888672 C 8.0687031 24.927942 7.452639 24 6.25 24 C 6.25 25.766294 7.807317 24.809172 8.171875 26.970703 C 7.518685 25.980157 6.484428 25.027371 6 28 C 6.693789 27.763481 7.3892473 25.786438 8.2382812 27.685547 C 8.2424813 27.789815 8.25 27.885289 8.25 28 L 8 31 L 9 31 L 8.75 28 C 8.77344 27.92969 8.7906537 27.856262 8.8085938 27.783203 C 8.8522437 27.805733 9.2124938 28.023207 9.8085938 28.398438 A 0.625 1.125 0 0 0 9.75 28.875 A 0.625 1.125 0 0 0 10.375 30 A 0.625 1.125 0 0 0 11 28.875 A 0.625 1.125 0 0 0 10.375 27.75 A 0.625 1.125 0 0 0 10.154297 27.822266 C 9.7408519 27.227616 9.349533 27.092593 9.03125 27.15625 C 9.304688 26.746094 9.96875 26.53125 12 27 C 10.698809 24.722915 9.5143736 25.829762 8.8378906 26.882812 C 9.1679136 24.969171 10.423819 25.367599 11.5 23 z M 29.5 23 C 27.42652 23 26.670329 24.521842 26.392578 25.888672 C 26.068703 24.927942 25.452639 24 24.25 24 C 24.25 25.766294 25.807317 24.809172 26.171875 26.970703 C 25.518685 25.980157 24.484428 25.027371 24 28 C 24.693789 27.763481 25.389247 25.786438 26.238281 27.685547 C 26.242481 27.789815 26.25 27.885289 26.25 28 L 26 31 L 27 31 L 26.75 28 C 26.77344 27.92969 26.790654 27.856262 26.808594 27.783203 C 26.852244 27.805733 27.212494 28.023207 27.808594 28.398438 A 0.625 1.125 0 0 0 27.75 28.875 A 0.625 1.125 0 0 0 28.375 30 A 0.625 1.125 0 0 0 29 28.875 A 0.625 1.125 0 0 0 28.375 27.75 A 0.625 1.125 0 0 0 28.154297 27.822266 C 27.740851 27.227616 27.349533 27.092593 27.03125 27.15625 C 27.304688 26.746094 27.96875 26.53125 30 27 C 28.698809 24.722915 27.514374 25.829762 26.837891 26.882812 C 27.167914 24.969171 28.423819 25.367599 29.5 23 z M 47.5 23 C 45.42652 23 44.670329 24.521842 44.392578 25.888672 C 44.068703 24.927942 43.452639 24 42.25 24 C 42.25 25.766294 43.807317 24.809172 44.171875 26.970703 C 43.518685 25.980157 42.484428 25.027371 42 28 C 42.693789 27.763481 43.389247 25.786438 44.238281 27.685547 C 44.242481 27.789815 44.25 27.885289 44.25 28 L 44 31 L 45 31 L 44.75 28 C 44.77344 27.92969 44.790654 27.856262 44.808594 27.783203 C 44.852244 27.805733 45.212494 28.023207 45.808594 28.398438 A 0.625 1.125 0 0 0 45.75 28.875 A 0.625 1.125 0 0 0 46.375 30 A 0.625 1.125 0 0 0 47 28.875 A 0.625 1.125 0 0 0 46.375 27.75 A 0.625 1.125 0 0 0 46.154297 27.822266 C 45.740851 27.227616 45.349533 27.092593 45.03125 27.15625 C 45.304688 26.746094 45.96875 26.53125 48 27 C 46.698809 24.722915 45.514374 25.829762 44.837891 26.882812 C 45.167914 24.969171 46.423819 25.367599 47.5 23 z M 66.5 23 C 64.42652 23 63.670329 24.521842 63.392578 25.888672 C 63.068703 24.927942 62.452639 24 61.25 24 C 61.25 25.766294 62.807317 24.809172 63.171875 26.970703 C 62.518685 25.980157 61.484428 25.027371 61 28 C 61.693789 27.763481 62.389247 25.786438 63.238281 27.685547 C 63.242481 27.789815 63.25 27.885289 63.25 28 L 63 31 L 64 31 L 63.75 28 C 63.77344 27.92969 63.790654 27.856262 63.808594 27.783203 C 63.852244 27.805733 64.212494 28.023207 64.808594 28.398438 A 0.625 1.125 0 0 0 64.75 28.875 A 0.625 1.125 0 0 0 65.375 30 A 0.625 1.125 0 0 0 66 28.875 A 0.625 1.125 0 0 0 65.375 27.75 A 0.625 1.125 0 0 0 65.154297 27.822266 C 64.740851 27.227616 64.349533 27.092593 64.03125 27.15625 C 64.304688 26.746094 64.96875 26.53125 67 27 C 65.698809 24.722915 64.514374 25.829762 63.837891 26.882812 C 64.167914 24.969171 65.423819 25.367599 66.5 23 z M 84.5 23 C 82.42652 23 81.670329 24.521842 81.392578 25.888672 C 81.068703 24.927942 80.452639 24 79.25 24 C 79.25 25.766294 80.807317 24.809172 81.171875 26.970703 C 80.518685 25.980157 79.484428 25.027371 79 28 C 79.693789 27.763481 80.389247 25.786438 81.238281 27.685547 C 81.242481 27.789815 81.25 27.885289 81.25 28 L 81 31 L 82 31 L 81.75 28 C 81.77344 27.92969 81.790654 27.856262 81.808594 27.783203 C 81.852244 27.805733 82.212494 28.023207 82.808594 28.398438 A 0.625 1.125 0 0 0 82.75 28.875 A 0.625 1.125 0 0 0 83.375 30 A 0.625 1.125 0 0 0 84 28.875 A 0.625 1.125 0 0 0 83.375 27.75 A 0.625 1.125 0 0 0 83.154297 27.822266 C 82.740851 27.227616 82.349533 27.092593 82.03125 27.15625 C 82.304688 26.746094 82.96875 26.53125 85 27 C 83.698809 24.722915 82.514374 25.829762 81.837891 26.882812 C 82.167914 24.969171 83.423819 25.367599 84.5 23 z M 102.5 23 C 100.42652 23 99.670329 24.521842 99.392578 25.888672 C 99.068703 24.927942 98.452639 24 97.25 24 C 97.25 25.766294 98.807317 24.809172 99.171875 26.970703 C 98.518685 25.980157 97.484428 25.027371 97 28 C 97.693789 27.763481 98.389247 25.786438 99.238281 27.685547 C 99.242481 27.789815 99.25 27.885289 99.25 28 L 99 31 L 100 31 L 99.75 28 C 99.77344 27.92969 99.790654 27.856262 99.808594 27.783203 C 99.852244 27.805733 100.21249 28.023207 100.80859 28.398438 A 0.625 1.125 0 0 0 100.75 28.875 A 0.625 1.125 0 0 0 101.375 30 A 0.625 1.125 0 0 0 102 28.875 A 0.625 1.125 0 0 0 101.375 27.75 A 0.625 1.125 0 0 0 101.1543 27.822266 C 100.74085 27.227616 100.34953 27.092593 100.03125 27.15625 C 100.30469 26.746094 100.96875 26.53125 103 27 C 101.69881 24.722915 100.51437 25.829762 99.837891 26.882812 C 100.16791 24.969171 101.42382 25.367599 102.5 23 z M 120.5 23 C 118.42652 23 117.67033 24.521842 117.39258 25.888672 C 117.0687 24.927942 116.45264 24 115.25 24 C 115.25 25.766294 116.80732 24.809172 117.17188 26.970703 C 116.51869 25.980157 115.48443 25.027371 115 28 C 115.69379 27.763481 116.38925 25.786438 117.23828 27.685547 C 117.24228 27.789815 117.25 27.885289 117.25 28 L 117 31 L 118 31 L 117.75 28 C 117.7734 27.92969 117.79059 27.856262 117.80859 27.783203 C 117.85219 27.805733 118.21249 28.023207 118.80859 28.398438 A 0.625 1.125 0 0 0 118.75 28.875 A 0.625 1.125 0 0 0 119.375 30 A 0.625 1.125 0 0 0 120 28.875 A 0.625 1.125 0 0 0 119.375 27.75 A 0.625 1.125 0 0 0 119.1543 27.822266 C 118.74085 27.227616 118.34953 27.092593 118.03125 27.15625 C 118.30469 26.746094 118.96875 26.53125 121 27 C 119.69881 24.722915 118.51437 25.829762 117.83789 26.882812 C 118.16791 24.969171 119.42382 25.367599 120.5 23 z M 2.5 32 C 1.2431641 32 0.47566969 32.561793 0 33.306641 L 0 35.271484 C 0.47487389 34.026531 1.5566505 34.07537 2.5 32 z M 20.5 32 C 18.42652 32 17.670329 33.521842 17.392578 34.888672 C 17.068703 33.927942 16.452639 33 15.25 33 C 15.25 34.766294 16.807317 33.809172 17.171875 35.970703 C 16.518685 34.980157 15.484428 34.027371 15 37 C 15.693789 36.763481 16.389247 34.786438 17.238281 36.685547 C 17.242481 36.789815 17.25 36.885289 17.25 37 L 17 40 L 18 40 L 17.75 37 C 17.77344 36.92969 17.790654 36.856262 17.808594 36.783203 C 17.852244 36.805733 18.212494 37.023207 18.808594 37.398438 A 0.625 1.125 0 0 0 18.75 37.875 A 0.625 1.125 0 0 0 19.375 39 A 0.625 1.125 0 0 0 20 37.875 A 0.625 1.125 0 0 0 19.375 36.75 A 0.625 1.125 0 0 0 19.154297 36.822266 C 18.740851 36.227616 18.349533 36.092593 18.03125 36.15625 C 18.304688 35.746094 18.96875 35.53125 21 36 C 19.698809 33.722915 18.514374 34.829761 17.837891 35.882812 C 18.167914 33.969172 19.423819 34.367599 20.5 32 z M 38.5 32 C 36.42652 32 35.670329 33.521842 35.392578 34.888672 C 35.068703 33.927942 34.452639 33 33.25 33 C 33.25 34.766294 34.807317 33.809172 35.171875 35.970703 C 34.518685 34.980157 33.484428 34.027371 33 37 C 33.693789 36.763481 34.389247 34.786438 35.238281 36.685547 C 35.242481 36.789815 35.25 36.885289 35.25 37 L 35 40 L 36 40 L 35.75 37 C 35.77344 36.92969 35.790654 36.856262 35.808594 36.783203 C 35.852244 36.805733 36.212494 37.023207 36.808594 37.398438 A 0.625 1.125 0 0 0 36.75 37.875 A 0.625 1.125 0 0 0 37.375 39 A 0.625 1.125 0 0 0 38 37.875 A 0.625 1.125 0 0 0 37.375 36.75 A 0.625 1.125 0 0 0 37.154297 36.822266 C 36.740851 36.227616 36.349533 36.092593 36.03125 36.15625 C 36.304688 35.746094 36.96875 35.53125 39 36 C 37.698809 33.722915 36.514374 34.829761 35.837891 35.882812 C 36.167914 33.969172 37.423819 34.367599 38.5 32 z M 56.5 32 C 54.42652 32 53.670329 33.521842 53.392578 34.888672 C 53.068703 33.927942 52.452639 33 51.25 33 C 51.25 34.766294 52.807317 33.809172 53.171875 35.970703 C 52.518685 34.980157 51.484428 34.027371 51 37 C 51.693789 36.763481 52.389247 34.786438 53.238281 36.685547 C 53.242481 36.789815 53.25 36.885289 53.25 37 L 53 40 L 54 40 L 53.75 37 C 53.77344 36.92969 53.790654 36.856262 53.808594 36.783203 C 53.852244 36.805733 54.212494 37.023207 54.808594 37.398438 A 0.625 1.125 0 0 0 54.75 37.875 A 0.625 1.125 0 0 0 55.375 39 A 0.625 1.125 0 0 0 56 37.875 A 0.625 1.125 0 0 0 55.375 36.75 A 0.625 1.125 0 0 0 55.154297 36.822266 C 54.740851 36.227616 54.349533 36.092593 54.03125 36.15625 C 54.304688 35.746094 54.96875 35.53125 57 36 C 55.698809 33.722915 54.514374 34.829761 53.837891 35.882812 C 54.167914 33.969172 55.423819 34.367599 56.5 32 z M 75.5 32 C 73.42652 32 72.670329 33.521842 72.392578 34.888672 C 72.068703 33.927942 71.452639 33 70.25 33 C 70.25 34.766294 71.807317 33.809172 72.171875 35.970703 C 71.518685 34.980157 70.484428 34.027371 70 37 C 70.693789 36.763481 71.389247 34.786438 72.238281 36.685547 C 72.242481 36.789815 72.25 36.885289 72.25 37 L 72 40 L 73 40 L 72.75 37 C 72.77344 36.92969 72.790654 36.856262 72.808594 36.783203 C 72.852244 36.805733 73.212494 37.023207 73.808594 37.398438 A 0.625 1.125 0 0 0 73.75 37.875 A 0.625 1.125 0 0 0 74.375 39 A 0.625 1.125 0 0 0 75 37.875 A 0.625 1.125 0 0 0 74.375 36.75 A 0.625 1.125 0 0 0 74.154297 36.822266 C 73.740851 36.227616 73.349533 36.092593 73.03125 36.15625 C 73.304688 35.746094 73.96875 35.53125 76 36 C 74.698809 33.722915 73.514374 34.829761 72.837891 35.882812 C 73.167914 33.969172 74.423819 34.367599 75.5 32 z M 93.5 32 C 91.42652 32 90.670329 33.521842 90.392578 34.888672 C 90.068703 33.927942 89.452639 33 88.25 33 C 88.25 34.766294 89.807317 33.809172 90.171875 35.970703 C 89.518685 34.980157 88.484428 34.027371 88 37 C 88.693789 36.763481 89.389247 34.786438 90.238281 36.685547 C 90.242481 36.789815 90.25 36.885289 90.25 37 L 90 40 L 91 40 L 90.75 37 C 90.77344 36.92969 90.790654 36.856262 90.808594 36.783203 C 90.852244 36.805733 91.212494 37.023207 91.808594 37.398438 A 0.625 1.125 0 0 0 91.75 37.875 A 0.625 1.125 0 0 0 92.375 39 A 0.625 1.125 0 0 0 93 37.875 A 0.625 1.125 0 0 0 92.375 36.75 A 0.625 1.125 0 0 0 92.154297 36.822266 C 91.740851 36.227616 91.349533 36.092593 91.03125 36.15625 C 91.304688 35.746094 91.96875 35.53125 94 36 C 92.698809 33.722915 91.514374 34.829761 90.837891 35.882812 C 91.167914 33.969172 92.423819 34.367599 93.5 32 z M 111.5 32 C 109.42652 32 108.67033 33.521842 108.39258 34.888672 C 108.0687 33.927942 107.45264 33 106.25 33 C 106.25 34.766294 107.80732 33.809172 108.17188 35.970703 C 107.51869 34.980157 106.48443 34.027371 106 37 C 106.69379 36.763481 107.38925 34.786438 108.23828 36.685547 C 108.24228 36.789815 108.25 36.885289 108.25 37 L 108 40 L 109 40 L 108.75 37 C 108.7734 36.92969 108.79059 36.856262 108.80859 36.783203 C 108.85219 36.805733 109.21249 37.023207 109.80859 37.398438 A 0.625 1.125 0 0 0 109.75 37.875 A 0.625 1.125 0 0 0 110.375 39 A 0.625 1.125 0 0 0 111 37.875 A 0.625 1.125 0 0 0 110.375 36.75 A 0.625 1.125 0 0 0 110.1543 36.822266 C 109.74085 36.227616 109.34953 36.092593 109.03125 36.15625 C 109.30469 35.746094 109.96875 35.53125 112 36 C 110.69881 33.722915 109.51437 34.829761 108.83789 35.882812 C 109.16791 33.969172 110.42382 34.367599 111.5 32 z M 125.25 33 C 125.25 34.766294 126.80732 33.809172 127.17188 35.970703 C 126.51869 34.980157 125.48443 34.027371 125 37 C 125.69379 36.763481 126.38925 34.786438 127.23828 36.685547 C 127.24228 36.789815 127.25 36.885289 127.25 37 L 127 40 L 128 40 L 127.75 37 C 127.7734 36.92969 127.79059 36.856262 127.80859 36.783203 C 127.81693 36.78751 127.96909 36.882098 128 36.900391 L 128 35.654297 C 127.94527 35.730511 127.88734 35.80583 127.83789 35.882812 C 127.87862 35.646615 127.93313 35.446784 128 35.271484 L 128 33.306641 C 127.69093 33.790614 127.50197 34.350343 127.39258 34.888672 C 127.0687 33.927942 126.45264 33 125.25 33 z M 1.6054688 34.685547 C 0.96603579 34.562713 0.41318184 35.078921 0 35.654297 L 0 36.900391 C 0.13082021 36.977796 0.32643879 37.094932 0.80859375 37.398438 A 0.625 1.125 0 0 0 0.75 37.875 A 0.625 1.125 0 0 0 1.375 39 A 0.625 1.125 0 0 0 2 37.875 A 0.625 1.125 0 0 0 1.375 36.75 A 0.625 1.125 0 0 0 1.1542969 36.822266 C 0.74085188 36.227616 0.349533 36.092593 0.03125 36.15625 C 0.304688 35.746094 0.96875 35.53125 3 36 C 2.5120534 35.146093 2.0399483 34.769009 1.6054688 34.685547 z M 11.5 41 C 9.42652 41 8.6703291 42.521842 8.3925781 43.888672 C 8.0687031 42.927942 7.452639 42 6.25 42 C 6.25 43.766294 7.807317 42.809172 8.171875 44.970703 C 7.518685 43.980157 6.484428 43.027371 6 46 C 6.693789 45.763481 7.3892473 43.786438 8.2382812 45.685547 C 8.2424813 45.789815 8.25 45.885289 8.25 46 L 8 49 L 9 49 L 8.75 46 C 8.77344 45.92969 8.7906537 45.856262 8.8085938 45.783203 C 8.8522437 45.805733 9.2124938 46.023207 9.8085938 46.398438 A 0.625 1.125 0 0 0 9.75 46.875 A 0.625 1.125 0 0 0 10.375 48 A 0.625 1.125 0 0 0 11 46.875 A 0.625 1.125 0 0 0 10.375 45.75 A 0.625 1.125 0 0 0 10.154297 45.822266 C 9.7408519 45.227616 9.349533 45.092593 9.03125 45.15625 C 9.304688 44.746094 9.96875 44.53125 12 45 C 10.698809 42.722915 9.5143736 43.829761 8.8378906 44.882812 C 9.1679136 42.969172 10.423819 43.367599 11.5 41 z M 29.5 41 C 27.42652 41 26.670329 42.521842 26.392578 43.888672 C 26.068703 42.927942 25.452639 42 24.25 42 C 24.25 43.766294 25.807317 42.809172 26.171875 44.970703 C 25.518685 43.980157 24.484428 43.027371 24 46 C 24.693789 45.763481 25.389247 43.786438 26.238281 45.685547 C 26.242481 45.789815 26.25 45.885289 26.25 46 L 26 49 L 27 49 L 26.75 46 C 26.77344 45.92969 26.790654 45.856262 26.808594 45.783203 C 26.852244 45.805733 27.212494 46.023207 27.808594 46.398438 A 0.625 1.125 0 0 0 27.75 46.875 A 0.625 1.125 0 0 0 28.375 48 A 0.625 1.125 0 0 0 29 46.875 A 0.625 1.125 0 0 0 28.375 45.75 A 0.625 1.125 0 0 0 28.154297 45.822266 C 27.740851 45.227616 27.349533 45.092593 27.03125 45.15625 C 27.304688 44.746094 27.96875 44.53125 30 45 C 28.698809 42.722915 27.514374 43.829761 26.837891 44.882812 C 27.167914 42.969172 28.423819 43.367599 29.5 41 z M 47.5 41 C 45.42652 41 44.670329 42.521842 44.392578 43.888672 C 44.068703 42.927942 43.452639 42 42.25 42 C 42.25 43.766294 43.807317 42.809172 44.171875 44.970703 C 43.518685 43.980157 42.484428 43.027371 42 46 C 42.693789 45.763481 43.389247 43.786438 44.238281 45.685547 C 44.242481 45.789815 44.25 45.885289 44.25 46 L 44 49 L 45 49 L 44.75 46 C 44.77344 45.92969 44.790654 45.856262 44.808594 45.783203 C 44.852244 45.805733 45.212494 46.023207 45.808594 46.398438 A 0.625 1.125 0 0 0 45.75 46.875 A 0.625 1.125 0 0 0 46.375 48 A 0.625 1.125 0 0 0 47 46.875 A 0.625 1.125 0 0 0 46.375 45.75 A 0.625 1.125 0 0 0 46.154297 45.822266 C 45.740851 45.227616 45.349533 45.092593 45.03125 45.15625 C 45.304688 44.746094 45.96875 44.53125 48 45 C 46.698809 42.722915 45.514374 43.829761 44.837891 44.882812 C 45.167914 42.969172 46.423819 43.367599 47.5 41 z M 66.5 41 C 64.42652 41 63.670329 42.521842 63.392578 43.888672 C 63.068703 42.927942 62.452639 42 61.25 42 C 61.25 43.766294 62.807317 42.809172 63.171875 44.970703 C 62.518685 43.980157 61.484428 43.027371 61 46 C 61.693789 45.763481 62.389247 43.786438 63.238281 45.685547 C 63.242481 45.789815 63.25 45.885289 63.25 46 L 63 49 L 64 49 L 63.75 46 C 63.77344 45.92969 63.790654 45.856262 63.808594 45.783203 C 63.852244 45.805733 64.212494 46.023207 64.808594 46.398438 A 0.625 1.125 0 0 0 64.75 46.875 A 0.625 1.125 0 0 0 65.375 48 A 0.625 1.125 0 0 0 66 46.875 A 0.625 1.125 0 0 0 65.375 45.75 A 0.625 1.125 0 0 0 65.154297 45.822266 C 64.740851 45.227616 64.349533 45.092593 64.03125 45.15625 C 64.304688 44.746094 64.96875 44.53125 67 45 C 65.698809 42.722915 64.514374 43.829761 63.837891 44.882812 C 64.167914 42.969172 65.423819 43.367599 66.5 41 z M 84.5 41 C 82.42652 41 81.670329 42.521842 81.392578 43.888672 C 81.068703 42.927942 80.452639 42 79.25 42 C 79.25 43.766294 80.807317 42.809172 81.171875 44.970703 C 80.518685 43.980157 79.484428 43.027371 79 46 C 79.693789 45.763481 80.389247 43.786438 81.238281 45.685547 C 81.242481 45.789815 81.25 45.885289 81.25 46 L 81 49 L 82 49 L 81.75 46 C 81.77344 45.92969 81.790654 45.856262 81.808594 45.783203 C 81.852244 45.805733 82.212494 46.023207 82.808594 46.398438 A 0.625 1.125 0 0 0 82.75 46.875 A 0.625 1.125 0 0 0 83.375 48 A 0.625 1.125 0 0 0 84 46.875 A 0.625 1.125 0 0 0 83.375 45.75 A 0.625 1.125 0 0 0 83.154297 45.822266 C 82.740851 45.227616 82.349533 45.092593 82.03125 45.15625 C 82.304688 44.746094 82.96875 44.53125 85 45 C 83.698809 42.722915 82.514374 43.829761 81.837891 44.882812 C 82.167914 42.969172 83.423819 43.367599 84.5 41 z M 102.5 41 C 100.42652 41 99.670329 42.521842 99.392578 43.888672 C 99.068703 42.927942 98.452639 42 97.25 42 C 97.25 43.766294 98.807317 42.809172 99.171875 44.970703 C 98.518685 43.980157 97.484428 43.027371 97 46 C 97.693789 45.763481 98.389247 43.786438 99.238281 45.685547 C 99.242481 45.789815 99.25 45.885289 99.25 46 L 99 49 L 100 49 L 99.75 46 C 99.77344 45.92969 99.790654 45.856262 99.808594 45.783203 C 99.852244 45.805733 100.21249 46.023207 100.80859 46.398438 A 0.625 1.125 0 0 0 100.75 46.875 A 0.625 1.125 0 0 0 101.375 48 A 0.625 1.125 0 0 0 102 46.875 A 0.625 1.125 0 0 0 101.375 45.75 A 0.625 1.125 0 0 0 101.1543 45.822266 C 100.74085 45.227616 100.34953 45.092593 100.03125 45.15625 C 100.30469 44.746094 100.96875 44.53125 103 45 C 101.69881 42.722915 100.51437 43.829761 99.837891 44.882812 C 100.16791 42.969172 101.42382 43.367599 102.5 41 z M 120.5 41 C 118.42652 41 117.67033 42.521842 117.39258 43.888672 C 117.0687 42.927942 116.45264 42 115.25 42 C 115.25 43.766294 116.80732 42.809172 117.17188 44.970703 C 116.51869 43.980157 115.48443 43.027371 115 46 C 115.69379 45.763481 116.38925 43.786438 117.23828 45.685547 C 117.24228 45.789815 117.25 45.885289 117.25 46 L 117 49 L 118 49 L 117.75 46 C 117.7734 45.92969 117.79059 45.856262 117.80859 45.783203 C 117.85219 45.805733 118.21249 46.023207 118.80859 46.398438 A 0.625 1.125 0 0 0 118.75 46.875 A 0.625 1.125 0 0 0 119.375 48 A 0.625 1.125 0 0 0 120 46.875 A 0.625 1.125 0 0 0 119.375 45.75 A 0.625 1.125 0 0 0 119.1543 45.822266 C 118.74085 45.227616 118.34953 45.092593 118.03125 45.15625 C 118.30469 44.746094 118.96875 44.53125 121 45 C 119.69881 42.722915 118.51437 43.829761 117.83789 44.882812 C 118.16791 42.969172 119.42382 43.367599 120.5 41 z M 2.5 50 C 1.2431641 50 0.47566969 50.561793 0 51.306641 L 0 53.271484 C 0.47487389 52.026531 1.5566505 52.07537 2.5 50 z M 20.5 50 C 18.42652 50 17.670329 51.521842 17.392578 52.888672 C 17.068703 51.927942 16.452639 51 15.25 51 C 15.25 52.766294 16.807317 51.809172 17.171875 53.970703 C 16.518685 52.980157 15.484428 52.027371 15 55 C 15.693789 54.763481 16.389247 52.786438 17.238281 54.685547 C 17.242481 54.789815 17.25 54.885289 17.25 55 L 17 58 L 18 58 L 17.75 55 C 17.77344 54.92969 17.790654 54.856262 17.808594 54.783203 C 17.852244 54.805733 18.212494 55.023207 18.808594 55.398438 A 0.625 1.125 0 0 0 18.75 55.875 A 0.625 1.125 0 0 0 19.375 57 A 0.625 1.125 0 0 0 20 55.875 A 0.625 1.125 0 0 0 19.375 54.75 A 0.625 1.125 0 0 0 19.154297 54.822266 C 18.740851 54.227616 18.349533 54.092593 18.03125 54.15625 C 18.304688 53.746094 18.96875 53.53125 21 54 C 19.698809 51.722915 18.514374 52.829761 17.837891 53.882812 C 18.167914 51.969172 19.423819 52.367599 20.5 50 z M 38.5 50 C 36.42652 50 35.670329 51.521842 35.392578 52.888672 C 35.068703 51.927942 34.452639 51 33.25 51 C 33.25 52.766294 34.807317 51.809172 35.171875 53.970703 C 34.518685 52.980157 33.484428 52.027371 33 55 C 33.693789 54.763481 34.389247 52.786438 35.238281 54.685547 C 35.242481 54.789815 35.25 54.885289 35.25 55 L 35 58 L 36 58 L 35.75 55 C 35.77344 54.92969 35.790654 54.856262 35.808594 54.783203 C 35.852244 54.805733 36.212494 55.023207 36.808594 55.398438 A 0.625 1.125 0 0 0 36.75 55.875 A 0.625 1.125 0 0 0 37.375 57 A 0.625 1.125 0 0 0 38 55.875 A 0.625 1.125 0 0 0 37.375 54.75 A 0.625 1.125 0 0 0 37.154297 54.822266 C 36.740851 54.227616 36.349533 54.092593 36.03125 54.15625 C 36.304688 53.746094 36.96875 53.53125 39 54 C 37.698809 51.722915 36.514374 52.829761 35.837891 53.882812 C 36.167914 51.969172 37.423819 52.367599 38.5 50 z M 56.5 50 C 54.42652 50 53.670329 51.521842 53.392578 52.888672 C 53.068703 51.927942 52.452639 51 51.25 51 C 51.25 52.766294 52.807317 51.809172 53.171875 53.970703 C 52.518685 52.980157 51.484428 52.027371 51 55 C 51.693789 54.763481 52.389247 52.786438 53.238281 54.685547 C 53.242481 54.789815 53.25 54.885289 53.25 55 L 53 58 L 54 58 L 53.75 55 C 53.77344 54.92969 53.790654 54.856262 53.808594 54.783203 C 53.852244 54.805733 54.212494 55.023207 54.808594 55.398438 A 0.625 1.125 0 0 0 54.75 55.875 A 0.625 1.125 0 0 0 55.375 57 A 0.625 1.125 0 0 0 56 55.875 A 0.625 1.125 0 0 0 55.375 54.75 A 0.625 1.125 0 0 0 55.154297 54.822266 C 54.740851 54.227616 54.349533 54.092593 54.03125 54.15625 C 54.304688 53.746094 54.96875 53.53125 57 54 C 55.698809 51.722915 54.514374 52.829761 53.837891 53.882812 C 54.167914 51.969172 55.423819 52.367599 56.5 50 z M 75.5 50 C 73.42652 50 72.670329 51.521842 72.392578 52.888672 C 72.068703 51.927942 71.452639 51 70.25 51 C 70.25 52.766294 71.807317 51.809172 72.171875 53.970703 C 71.518685 52.980157 70.484428 52.027371 70 55 C 70.693789 54.763481 71.389247 52.786438 72.238281 54.685547 C 72.242481 54.789815 72.25 54.885289 72.25 55 L 72 58 L 73 58 L 72.75 55 C 72.77344 54.92969 72.790654 54.856262 72.808594 54.783203 C 72.852244 54.805733 73.212494 55.023207 73.808594 55.398438 A 0.625 1.125 0 0 0 73.75 55.875 A 0.625 1.125 0 0 0 74.375 57 A 0.625 1.125 0 0 0 75 55.875 A 0.625 1.125 0 0 0 74.375 54.75 A 0.625 1.125 0 0 0 74.154297 54.822266 C 73.740851 54.227616 73.349533 54.092593 73.03125 54.15625 C 73.304688 53.746094 73.96875 53.53125 76 54 C 74.698809 51.722915 73.514374 52.829761 72.837891 53.882812 C 73.167914 51.969172 74.423819 52.367599 75.5 50 z M 93.5 50 C 91.42652 50 90.670329 51.521842 90.392578 52.888672 C 90.068703 51.927942 89.452639 51 88.25 51 C 88.25 52.766294 89.807317 51.809172 90.171875 53.970703 C 89.518685 52.980157 88.484428 52.027371 88 55 C 88.693789 54.763481 89.389247 52.786438 90.238281 54.685547 C 90.242481 54.789815 90.25 54.885289 90.25 55 L 90 58 L 91 58 L 90.75 55 C 90.77344 54.92969 90.790654 54.856262 90.808594 54.783203 C 90.852244 54.805733 91.212494 55.023207 91.808594 55.398438 A 0.625 1.125 0 0 0 91.75 55.875 A 0.625 1.125 0 0 0 92.375 57 A 0.625 1.125 0 0 0 93 55.875 A 0.625 1.125 0 0 0 92.375 54.75 A 0.625 1.125 0 0 0 92.154297 54.822266 C 91.740851 54.227616 91.349533 54.092593 91.03125 54.15625 C 91.304688 53.746094 91.96875 53.53125 94 54 C 92.698809 51.722915 91.514374 52.829761 90.837891 53.882812 C 91.167914 51.969172 92.423819 52.367599 93.5 50 z M 111.5 50 C 109.42652 50 108.67033 51.521842 108.39258 52.888672 C 108.0687 51.927942 107.45264 51 106.25 51 C 106.25 52.766294 107.80732 51.809172 108.17188 53.970703 C 107.51869 52.980157 106.48443 52.027371 106 55 C 106.69379 54.763481 107.38925 52.786438 108.23828 54.685547 C 108.24228 54.789815 108.25 54.885289 108.25 55 L 108 58 L 109 58 L 108.75 55 C 108.7734 54.92969 108.79059 54.856262 108.80859 54.783203 C 108.85219 54.805733 109.21249 55.023207 109.80859 55.398438 A 0.625 1.125 0 0 0 109.75 55.875 A 0.625 1.125 0 0 0 110.375 57 A 0.625 1.125 0 0 0 111 55.875 A 0.625 1.125 0 0 0 110.375 54.75 A 0.625 1.125 0 0 0 110.1543 54.822266 C 109.74085 54.227616 109.34953 54.092593 109.03125 54.15625 C 109.30469 53.746094 109.96875 53.53125 112 54 C 110.69881 51.722915 109.51437 52.829761 108.83789 53.882812 C 109.16791 51.969172 110.42382 52.367599 111.5 50 z M 125.25 51 C 125.25 52.766294 126.80732 51.809172 127.17188 53.970703 C 126.51869 52.980157 125.48443 52.027371 125 55 C 125.69379 54.763481 126.38925 52.786438 127.23828 54.685547 C 127.24228 54.789815 127.25 54.885289 127.25 55 L 127 58 L 128 58 L 127.75 55 C 127.7734 54.92969 127.79059 54.856262 127.80859 54.783203 C 127.81693 54.78751 127.96909 54.882098 128 54.900391 L 128 53.654297 C 127.94527 53.730511 127.88734 53.80583 127.83789 53.882812 C 127.87862 53.646615 127.93313 53.446784 128 53.271484 L 128 51.306641 C 127.69093 51.790614 127.50197 52.350343 127.39258 52.888672 C 127.0687 51.927942 126.45264 51 125.25 51 z M 1.6054688 52.685547 C 0.96603579 52.562713 0.41318184 53.078921 0 53.654297 L 0 54.900391 C 0.13082021 54.977796 0.32643879 55.094932 0.80859375 55.398438 A 0.625 1.125 0 0 0 0.75 55.875 A 0.625 1.125 0 0 0 1.375 57 A 0.625 1.125 0 0 0 2 55.875 A 0.625 1.125 0 0 0 1.375 54.75 A 0.625 1.125 0 0 0 1.1542969 54.822266 C 0.74085188 54.227616 0.349533 54.092593 0.03125 54.15625 C 0.304688 53.746094 0.96875 53.53125 3 54 C 2.5120534 53.146093 2.0399483 52.769009 1.6054688 52.685547 z M 11.5 60 C 9.42652 60 8.6703291 61.521842 8.3925781 62.888672 C 8.0687031 61.927942 7.452639 61 6.25 61 C 6.25 62.766294 7.807317 61.809172 8.171875 63.970703 C 7.518685 62.980157 6.484428 62.027371 6 65 C 6.693789 64.763481 7.3892473 62.786438 8.2382812 64.685547 C 8.2424813 64.789815 8.25 64.885289 8.25 65 L 8 68 L 9 68 L 8.75 65 C 8.77344 64.92969 8.7906537 64.856262 8.8085938 64.783203 C 8.8522437 64.805733 9.2124938 65.023206 9.8085938 65.398438 A 0.625 1.125 0 0 0 9.75 65.875 A 0.625 1.125 0 0 0 10.375 67 A 0.625 1.125 0 0 0 11 65.875 A 0.625 1.125 0 0 0 10.375 64.75 A 0.625 1.125 0 0 0 10.154297 64.822266 C 9.7408519 64.227616 9.349533 64.092593 9.03125 64.15625 C 9.304688 63.746094 9.96875 63.53125 12 64 C 10.698809 61.722915 9.5143736 62.829761 8.8378906 63.882812 C 9.1679136 61.969172 10.423819 62.367599 11.5 60 z M 29.5 60 C 27.42652 60 26.670329 61.521842 26.392578 62.888672 C 26.068703 61.927942 25.452639 61 24.25 61 C 24.25 62.766294 25.807317 61.809172 26.171875 63.970703 C 25.518685 62.980157 24.484428 62.027371 24 65 C 24.693789 64.763481 25.389247 62.786438 26.238281 64.685547 C 26.242481 64.789815 26.25 64.885289 26.25 65 L 26 68 L 27 68 L 26.75 65 C 26.77344 64.92969 26.790654 64.856262 26.808594 64.783203 C 26.852244 64.805733 27.212494 65.023206 27.808594 65.398438 A 0.625 1.125 0 0 0 27.75 65.875 A 0.625 1.125 0 0 0 28.375 67 A 0.625 1.125 0 0 0 29 65.875 A 0.625 1.125 0 0 0 28.375 64.75 A 0.625 1.125 0 0 0 28.154297 64.822266 C 27.740851 64.227616 27.349533 64.092593 27.03125 64.15625 C 27.304688 63.746094 27.96875 63.53125 30 64 C 28.698809 61.722915 27.514374 62.829761 26.837891 63.882812 C 27.167914 61.969172 28.423819 62.367599 29.5 60 z M 47.5 60 C 45.42652 60 44.670329 61.521842 44.392578 62.888672 C 44.068703 61.927942 43.452639 61 42.25 61 C 42.25 62.766294 43.807317 61.809172 44.171875 63.970703 C 43.518685 62.980157 42.484428 62.027371 42 65 C 42.693789 64.763481 43.389247 62.786438 44.238281 64.685547 C 44.242481 64.789815 44.25 64.885289 44.25 65 L 44 68 L 45 68 L 44.75 65 C 44.77344 64.92969 44.790654 64.856262 44.808594 64.783203 C 44.852244 64.805733 45.212494 65.023206 45.808594 65.398438 A 0.625 1.125 0 0 0 45.75 65.875 A 0.625 1.125 0 0 0 46.375 67 A 0.625 1.125 0 0 0 47 65.875 A 0.625 1.125 0 0 0 46.375 64.75 A 0.625 1.125 0 0 0 46.154297 64.822266 C 45.740851 64.227616 45.349533 64.092593 45.03125 64.15625 C 45.304688 63.746094 45.96875 63.53125 48 64 C 46.698809 61.722915 45.514374 62.829761 44.837891 63.882812 C 45.167914 61.969172 46.423819 62.367599 47.5 60 z M 66.5 60 C 64.42652 60 63.670329 61.521842 63.392578 62.888672 C 63.068703 61.927942 62.452639 61 61.25 61 C 61.25 62.766294 62.807317 61.809172 63.171875 63.970703 C 62.518685 62.980157 61.484428 62.027371 61 65 C 61.693789 64.763481 62.389247 62.786438 63.238281 64.685547 C 63.242481 64.789815 63.25 64.885289 63.25 65 L 63 68 L 64 68 L 63.75 65 C 63.77344 64.92969 63.790654 64.856262 63.808594 64.783203 C 63.852244 64.805733 64.212494 65.023206 64.808594 65.398438 A 0.625 1.125 0 0 0 64.75 65.875 A 0.625 1.125 0 0 0 65.375 67 A 0.625 1.125 0 0 0 66 65.875 A 0.625 1.125 0 0 0 65.375 64.75 A 0.625 1.125 0 0 0 65.154297 64.822266 C 64.740851 64.227616 64.349533 64.092593 64.03125 64.15625 C 64.304688 63.746094 64.96875 63.53125 67 64 C 65.698809 61.722915 64.514374 62.829761 63.837891 63.882812 C 64.167914 61.969172 65.423819 62.367599 66.5 60 z M 84.5 60 C 82.42652 60 81.670329 61.521842 81.392578 62.888672 C 81.068703 61.927942 80.452639 61 79.25 61 C 79.25 62.766294 80.807317 61.809172 81.171875 63.970703 C 80.518685 62.980157 79.484428 62.027371 79 65 C 79.693789 64.763481 80.389247 62.786438 81.238281 64.685547 C 81.242481 64.789815 81.25 64.885289 81.25 65 L 81 68 L 82 68 L 81.75 65 C 81.77344 64.92969 81.790654 64.856262 81.808594 64.783203 C 81.852244 64.805733 82.212494 65.023206 82.808594 65.398438 A 0.625 1.125 0 0 0 82.75 65.875 A 0.625 1.125 0 0 0 83.375 67 A 0.625 1.125 0 0 0 84 65.875 A 0.625 1.125 0 0 0 83.375 64.75 A 0.625 1.125 0 0 0 83.154297 64.822266 C 82.740851 64.227616 82.349533 64.092593 82.03125 64.15625 C 82.304688 63.746094 82.96875 63.53125 85 64 C 83.698809 61.722915 82.514374 62.829761 81.837891 63.882812 C 82.167914 61.969172 83.423819 62.367599 84.5 60 z M 102.5 60 C 100.42652 60 99.670329 61.521842 99.392578 62.888672 C 99.068703 61.927942 98.452639 61 97.25 61 C 97.25 62.766294 98.807317 61.809172 99.171875 63.970703 C 98.518685 62.980157 97.484428 62.027371 97 65 C 97.693789 64.763481 98.389247 62.786438 99.238281 64.685547 C 99.242481 64.789815 99.25 64.885289 99.25 65 L 99 68 L 100 68 L 99.75 65 C 99.77344 64.92969 99.790654 64.856262 99.808594 64.783203 C 99.852244 64.805733 100.21249 65.023206 100.80859 65.398438 A 0.625 1.125 0 0 0 100.75 65.875 A 0.625 1.125 0 0 0 101.375 67 A 0.625 1.125 0 0 0 102 65.875 A 0.625 1.125 0 0 0 101.375 64.75 A 0.625 1.125 0 0 0 101.1543 64.822266 C 100.74085 64.227616 100.34953 64.092593 100.03125 64.15625 C 100.30469 63.746094 100.96875 63.53125 103 64 C 101.69881 61.722915 100.51437 62.829761 99.837891 63.882812 C 100.16791 61.969172 101.42382 62.367599 102.5 60 z M 120.5 60 C 118.42652 60 117.67033 61.521842 117.39258 62.888672 C 117.0687 61.927942 116.45264 61 115.25 61 C 115.25 62.766294 116.80732 61.809172 117.17188 63.970703 C 116.51869 62.980157 115.48443 62.027371 115 65 C 115.69379 64.763481 116.38925 62.786438 117.23828 64.685547 C 117.24228 64.789815 117.25 64.885289 117.25 65 L 117 68 L 118 68 L 117.75 65 C 117.7734 64.92969 117.79059 64.856262 117.80859 64.783203 C 117.85219 64.805733 118.21249 65.023206 118.80859 65.398438 A 0.625 1.125 0 0 0 118.75 65.875 A 0.625 1.125 0 0 0 119.375 67 A 0.625 1.125 0 0 0 120 65.875 A 0.625 1.125 0 0 0 119.375 64.75 A 0.625 1.125 0 0 0 119.1543 64.822266 C 118.74085 64.227616 118.34953 64.092593 118.03125 64.15625 C 118.30469 63.746094 118.96875 63.53125 121 64 C 119.69881 61.722915 118.51437 62.829761 117.83789 63.882812 C 118.16791 61.969172 119.42382 62.367599 120.5 60 z M 2.5 69 C 1.2431641 69 0.47566969 69.561793 0 70.306641 L 0 72.271484 C 0.47487389 71.026531 1.5566505 71.07537 2.5 69 z M 20.5 69 C 18.42652 69 17.670329 70.521842 17.392578 71.888672 C 17.068703 70.927942 16.452639 70 15.25 70 C 15.25 71.766294 16.807317 70.809172 17.171875 72.970703 C 16.518685 71.980157 15.484428 71.027371 15 74 C 15.693789 73.763481 16.389247 71.786438 17.238281 73.685547 C 17.242481 73.789815 17.25 73.885289 17.25 74 L 17 77 L 18 77 L 17.75 74 C 17.77344 73.92969 17.790654 73.856262 17.808594 73.783203 C 17.852244 73.805733 18.212494 74.023206 18.808594 74.398438 A 0.625 1.125 0 0 0 18.75 74.875 A 0.625 1.125 0 0 0 19.375 76 A 0.625 1.125 0 0 0 20 74.875 A 0.625 1.125 0 0 0 19.375 73.75 A 0.625 1.125 0 0 0 19.154297 73.822266 C 18.740851 73.227616 18.349533 73.092593 18.03125 73.15625 C 18.304688 72.746094 18.96875 72.53125 21 73 C 19.698809 70.722915 18.514374 71.829762 17.837891 72.882812 C 18.167914 70.969172 19.423819 71.367599 20.5 69 z M 38.5 69 C 36.42652 69 35.670329 70.521842 35.392578 71.888672 C 35.068703 70.927942 34.452639 70 33.25 70 C 33.25 71.766294 34.807317 70.809172 35.171875 72.970703 C 34.518685 71.980157 33.484428 71.027371 33 74 C 33.693789 73.763481 34.389247 71.786438 35.238281 73.685547 C 35.242481 73.789815 35.25 73.885289 35.25 74 L 35 77 L 36 77 L 35.75 74 C 35.77344 73.92969 35.790654 73.856262 35.808594 73.783203 C 35.852244 73.805733 36.212494 74.023206 36.808594 74.398438 A 0.625 1.125 0 0 0 36.75 74.875 A 0.625 1.125 0 0 0 37.375 76 A 0.625 1.125 0 0 0 38 74.875 A 0.625 1.125 0 0 0 37.375 73.75 A 0.625 1.125 0 0 0 37.154297 73.822266 C 36.740851 73.227616 36.349533 73.092593 36.03125 73.15625 C 36.304688 72.746094 36.96875 72.53125 39 73 C 37.698809 70.722915 36.514374 71.829762 35.837891 72.882812 C 36.167914 70.969172 37.423819 71.367599 38.5 69 z M 56.5 69 C 54.42652 69 53.670329 70.521842 53.392578 71.888672 C 53.068703 70.927942 52.452639 70 51.25 70 C 51.25 71.766294 52.807317 70.809172 53.171875 72.970703 C 52.518685 71.980157 51.484428 71.027371 51 74 C 51.693789 73.763481 52.389247 71.786438 53.238281 73.685547 C 53.242481 73.789815 53.25 73.885289 53.25 74 L 53 77 L 54 77 L 53.75 74 C 53.77344 73.92969 53.790654 73.856262 53.808594 73.783203 C 53.852244 73.805733 54.212494 74.023206 54.808594 74.398438 A 0.625 1.125 0 0 0 54.75 74.875 A 0.625 1.125 0 0 0 55.375 76 A 0.625 1.125 0 0 0 56 74.875 A 0.625 1.125 0 0 0 55.375 73.75 A 0.625 1.125 0 0 0 55.154297 73.822266 C 54.740851 73.227616 54.349533 73.092593 54.03125 73.15625 C 54.304688 72.746094 54.96875 72.53125 57 73 C 55.698809 70.722915 54.514374 71.829762 53.837891 72.882812 C 54.167914 70.969172 55.423819 71.367599 56.5 69 z M 75.5 69 C 73.42652 69 72.670329 70.521842 72.392578 71.888672 C 72.068703 70.927942 71.452639 70 70.25 70 C 70.25 71.766294 71.807317 70.809172 72.171875 72.970703 C 71.518685 71.980157 70.484428 71.027371 70 74 C 70.693789 73.763481 71.389247 71.786438 72.238281 73.685547 C 72.242481 73.789815 72.25 73.885289 72.25 74 L 72 77 L 73 77 L 72.75 74 C 72.77344 73.92969 72.790654 73.856262 72.808594 73.783203 C 72.852244 73.805733 73.212494 74.023206 73.808594 74.398438 A 0.625 1.125 0 0 0 73.75 74.875 A 0.625 1.125 0 0 0 74.375 76 A 0.625 1.125 0 0 0 75 74.875 A 0.625 1.125 0 0 0 74.375 73.75 A 0.625 1.125 0 0 0 74.154297 73.822266 C 73.740851 73.227616 73.349533 73.092593 73.03125 73.15625 C 73.304688 72.746094 73.96875 72.53125 76 73 C 74.698809 70.722915 73.514374 71.829762 72.837891 72.882812 C 73.167914 70.969172 74.423819 71.367599 75.5 69 z M 93.5 69 C 91.42652 69 90.670329 70.521842 90.392578 71.888672 C 90.068703 70.927942 89.452639 70 88.25 70 C 88.25 71.766294 89.807317 70.809172 90.171875 72.970703 C 89.518685 71.980157 88.484428 71.027371 88 74 C 88.693789 73.763481 89.389247 71.786438 90.238281 73.685547 C 90.242481 73.789815 90.25 73.885289 90.25 74 L 90 77 L 91 77 L 90.75 74 C 90.77344 73.92969 90.790654 73.856262 90.808594 73.783203 C 90.852244 73.805733 91.212494 74.023206 91.808594 74.398438 A 0.625 1.125 0 0 0 91.75 74.875 A 0.625 1.125 0 0 0 92.375 76 A 0.625 1.125 0 0 0 93 74.875 A 0.625 1.125 0 0 0 92.375 73.75 A 0.625 1.125 0 0 0 92.154297 73.822266 C 91.740851 73.227616 91.349533 73.092593 91.03125 73.15625 C 91.304688 72.746094 91.96875 72.53125 94 73 C 92.698809 70.722915 91.514374 71.829762 90.837891 72.882812 C 91.167914 70.969172 92.423819 71.367599 93.5 69 z M 111.5 69 C 109.42652 69 108.67033 70.521842 108.39258 71.888672 C 108.0687 70.927942 107.45264 70 106.25 70 C 106.25 71.766294 107.80732 70.809172 108.17188 72.970703 C 107.51869 71.980157 106.48443 71.027371 106 74 C 106.69379 73.763481 107.38925 71.786438 108.23828 73.685547 C 108.24228 73.789815 108.25 73.885289 108.25 74 L 108 77 L 109 77 L 108.75 74 C 108.7734 73.92969 108.79059 73.856262 108.80859 73.783203 C 108.85219 73.805733 109.21249 74.023206 109.80859 74.398438 A 0.625 1.125 0 0 0 109.75 74.875 A 0.625 1.125 0 0 0 110.375 76 A 0.625 1.125 0 0 0 111 74.875 A 0.625 1.125 0 0 0 110.375 73.75 A 0.625 1.125 0 0 0 110.1543 73.822266 C 109.74085 73.227616 109.34953 73.092593 109.03125 73.15625 C 109.30469 72.746094 109.96875 72.53125 112 73 C 110.69881 70.722915 109.51437 71.829762 108.83789 72.882812 C 109.16791 70.969172 110.42382 71.367599 111.5 69 z M 125.25 70 C 125.25 71.766294 126.80732 70.809172 127.17188 72.970703 C 126.51869 71.980157 125.48443 71.027371 125 74 C 125.69379 73.763481 126.38925 71.786438 127.23828 73.685547 C 127.24228 73.789815 127.25 73.885289 127.25 74 L 127 77 L 128 77 L 127.75 74 C 127.7734 73.92969 127.79059 73.856262 127.80859 73.783203 C 127.81693 73.78751 127.96909 73.882098 128 73.900391 L 128 72.654297 C 127.94527 72.730511 127.88734 72.80583 127.83789 72.882812 C 127.87862 72.646615 127.93313 72.446784 128 72.271484 L 128 70.306641 C 127.69093 70.790614 127.50197 71.350343 127.39258 71.888672 C 127.0687 70.927942 126.45264 70 125.25 70 z M 1.6054688 71.685547 C 0.96603579 71.562713 0.41318184 72.078921 0 72.654297 L 0 73.900391 C 0.13082021 73.977796 0.32643879 74.094932 0.80859375 74.398438 A 0.625 1.125 0 0 0 0.75 74.875 A 0.625 1.125 0 0 0 1.375 76 A 0.625 1.125 0 0 0 2 74.875 A 0.625 1.125 0 0 0 1.375 73.75 A 0.625 1.125 0 0 0 1.1542969 73.822266 C 0.74085188 73.227616 0.349533 73.092593 0.03125 73.15625 C 0.304688 72.746094 0.96875 72.53125 3 73 C 2.5120534 72.146093 2.0399483 71.769009 1.6054688 71.685547 z M 11.5 78 C 9.42652 78 8.6703291 79.521842 8.3925781 80.888672 C 8.0687031 79.927942 7.452639 79 6.25 79 C 6.25 80.766294 7.807317 79.809172 8.171875 81.970703 C 7.518685 80.980157 6.484428 80.027371 6 83 C 6.693789 82.763481 7.3892473 80.786438 8.2382812 82.685547 C 8.2424813 82.789815 8.25 82.885289 8.25 83 L 8 86 L 9 86 L 8.75 83 C 8.77344 82.92969 8.7906537 82.856262 8.8085938 82.783203 C 8.8522437 82.805733 9.2124938 83.023206 9.8085938 83.398438 A 0.625 1.125 0 0 0 9.75 83.875 A 0.625 1.125 0 0 0 10.375 85 A 0.625 1.125 0 0 0 11 83.875 A 0.625 1.125 0 0 0 10.375 82.75 A 0.625 1.125 0 0 0 10.154297 82.822266 C 9.7408519 82.227616 9.349533 82.092593 9.03125 82.15625 C 9.304688 81.746094 9.96875 81.53125 12 82 C 10.698809 79.722915 9.5143736 80.829762 8.8378906 81.882812 C 9.1679136 79.969172 10.423819 80.367599 11.5 78 z M 29.5 78 C 27.42652 78 26.670329 79.521842 26.392578 80.888672 C 26.068703 79.927942 25.452639 79 24.25 79 C 24.25 80.766294 25.807317 79.809172 26.171875 81.970703 C 25.518685 80.980157 24.484428 80.027371 24 83 C 24.693789 82.763481 25.389247 80.786438 26.238281 82.685547 C 26.242481 82.789815 26.25 82.885289 26.25 83 L 26 86 L 27 86 L 26.75 83 C 26.77344 82.92969 26.790654 82.856262 26.808594 82.783203 C 26.852244 82.805733 27.212494 83.023206 27.808594 83.398438 A 0.625 1.125 0 0 0 27.75 83.875 A 0.625 1.125 0 0 0 28.375 85 A 0.625 1.125 0 0 0 29 83.875 A 0.625 1.125 0 0 0 28.375 82.75 A 0.625 1.125 0 0 0 28.154297 82.822266 C 27.740851 82.227616 27.349533 82.092593 27.03125 82.15625 C 27.304688 81.746094 27.96875 81.53125 30 82 C 28.698809 79.722915 27.514374 80.829762 26.837891 81.882812 C 27.167914 79.969172 28.423819 80.367599 29.5 78 z M 47.5 78 C 45.42652 78 44.670329 79.521842 44.392578 80.888672 C 44.068703 79.927942 43.452639 79 42.25 79 C 42.25 80.766294 43.807317 79.809172 44.171875 81.970703 C 43.518685 80.980157 42.484428 80.027371 42 83 C 42.693789 82.763481 43.389247 80.786438 44.238281 82.685547 C 44.242481 82.789815 44.25 82.885289 44.25 83 L 44 86 L 45 86 L 44.75 83 C 44.77344 82.92969 44.790654 82.856262 44.808594 82.783203 C 44.852244 82.805733 45.212494 83.023206 45.808594 83.398438 A 0.625 1.125 0 0 0 45.75 83.875 A 0.625 1.125 0 0 0 46.375 85 A 0.625 1.125 0 0 0 47 83.875 A 0.625 1.125 0 0 0 46.375 82.75 A 0.625 1.125 0 0 0 46.154297 82.822266 C 45.740851 82.227616 45.349533 82.092593 45.03125 82.15625 C 45.304688 81.746094 45.96875 81.53125 48 82 C 46.698809 79.722915 45.514374 80.829762 44.837891 81.882812 C 45.167914 79.969172 46.423819 80.367599 47.5 78 z M 66.5 78 C 64.42652 78 63.670329 79.521842 63.392578 80.888672 C 63.068703 79.927942 62.452639 79 61.25 79 C 61.25 80.766294 62.807317 79.809172 63.171875 81.970703 C 62.518685 80.980157 61.484428 80.027371 61 83 C 61.693789 82.763481 62.389247 80.786438 63.238281 82.685547 C 63.242481 82.789815 63.25 82.885289 63.25 83 L 63 86 L 64 86 L 63.75 83 C 63.77344 82.92969 63.790654 82.856262 63.808594 82.783203 C 63.852244 82.805733 64.212494 83.023206 64.808594 83.398438 A 0.625 1.125 0 0 0 64.75 83.875 A 0.625 1.125 0 0 0 65.375 85 A 0.625 1.125 0 0 0 66 83.875 A 0.625 1.125 0 0 0 65.375 82.75 A 0.625 1.125 0 0 0 65.154297 82.822266 C 64.740851 82.227616 64.349533 82.092593 64.03125 82.15625 C 64.304688 81.746094 64.96875 81.53125 67 82 C 65.698809 79.722915 64.514374 80.829762 63.837891 81.882812 C 64.167914 79.969172 65.423819 80.367599 66.5 78 z M 84.5 78 C 82.42652 78 81.670329 79.521842 81.392578 80.888672 C 81.068703 79.927942 80.452639 79 79.25 79 C 79.25 80.766294 80.807317 79.809172 81.171875 81.970703 C 80.518685 80.980157 79.484428 80.027371 79 83 C 79.693789 82.763481 80.389247 80.786438 81.238281 82.685547 C 81.242481 82.789815 81.25 82.885289 81.25 83 L 81 86 L 82 86 L 81.75 83 C 81.77344 82.92969 81.790654 82.856262 81.808594 82.783203 C 81.852244 82.805733 82.212494 83.023206 82.808594 83.398438 A 0.625 1.125 0 0 0 82.75 83.875 A 0.625 1.125 0 0 0 83.375 85 A 0.625 1.125 0 0 0 84 83.875 A 0.625 1.125 0 0 0 83.375 82.75 A 0.625 1.125 0 0 0 83.154297 82.822266 C 82.740851 82.227616 82.349533 82.092593 82.03125 82.15625 C 82.304688 81.746094 82.96875 81.53125 85 82 C 83.698809 79.722915 82.514374 80.829762 81.837891 81.882812 C 82.167914 79.969172 83.423819 80.367599 84.5 78 z M 102.5 78 C 100.42652 78 99.670329 79.521842 99.392578 80.888672 C 99.068703 79.927942 98.452639 79 97.25 79 C 97.25 80.766294 98.807317 79.809172 99.171875 81.970703 C 98.518685 80.980157 97.484428 80.027371 97 83 C 97.693789 82.763481 98.389247 80.786438 99.238281 82.685547 C 99.242481 82.789815 99.25 82.885289 99.25 83 L 99 86 L 100 86 L 99.75 83 C 99.77344 82.92969 99.790654 82.856262 99.808594 82.783203 C 99.852244 82.805733 100.21249 83.023206 100.80859 83.398438 A 0.625 1.125 0 0 0 100.75 83.875 A 0.625 1.125 0 0 0 101.375 85 A 0.625 1.125 0 0 0 102 83.875 A 0.625 1.125 0 0 0 101.375 82.75 A 0.625 1.125 0 0 0 101.1543 82.822266 C 100.74085 82.227616 100.34953 82.092593 100.03125 82.15625 C 100.30469 81.746094 100.96875 81.53125 103 82 C 101.69881 79.722915 100.51437 80.829762 99.837891 81.882812 C 100.16791 79.969172 101.42382 80.367599 102.5 78 z M 120.5 78 C 118.42652 78 117.67033 79.521842 117.39258 80.888672 C 117.0687 79.927942 116.45264 79 115.25 79 C 115.25 80.766294 116.80732 79.809172 117.17188 81.970703 C 116.51869 80.980157 115.48443 80.027371 115 83 C 115.69379 82.763481 116.38925 80.786438 117.23828 82.685547 C 117.24228 82.789815 117.25 82.885289 117.25 83 L 117 86 L 118 86 L 117.75 83 C 117.7734 82.92969 117.79059 82.856262 117.80859 82.783203 C 117.85219 82.805733 118.21249 83.023206 118.80859 83.398438 A 0.625 1.125 0 0 0 118.75 83.875 A 0.625 1.125 0 0 0 119.375 85 A 0.625 1.125 0 0 0 120 83.875 A 0.625 1.125 0 0 0 119.375 82.75 A 0.625 1.125 0 0 0 119.1543 82.822266 C 118.74085 82.227616 118.34953 82.092593 118.03125 82.15625 C 118.30469 81.746094 118.96875 81.53125 121 82 C 119.69881 79.722915 118.51437 80.829762 117.83789 81.882812 C 118.16791 79.969172 119.42382 80.367599 120.5 78 z M 2.5 87 C 1.2431641 87 0.47566969 87.561793 0 88.306641 L 0 90.271484 C 0.47487389 89.026531 1.5566505 89.07537 2.5 87 z M 20.5 87 C 18.42652 87 17.670329 88.521842 17.392578 89.888672 C 17.068703 88.927942 16.452639 88 15.25 88 C 15.25 89.766294 16.807317 88.809172 17.171875 90.970703 C 16.518685 89.980157 15.484428 89.027371 15 92 C 15.693789 91.763481 16.389247 89.786438 17.238281 91.685547 C 17.242481 91.789815 17.25 91.885289 17.25 92 L 17 95 L 18 95 L 17.75 92 C 17.77344 91.92969 17.790654 91.856262 17.808594 91.783203 C 17.852244 91.805733 18.212494 92.023206 18.808594 92.398438 A 0.625 1.125 0 0 0 18.75 92.875 A 0.625 1.125 0 0 0 19.375 94 A 0.625 1.125 0 0 0 20 92.875 A 0.625 1.125 0 0 0 19.375 91.75 A 0.625 1.125 0 0 0 19.154297 91.822266 C 18.740851 91.227616 18.349533 91.092593 18.03125 91.15625 C 18.304688 90.746094 18.96875 90.53125 21 91 C 19.698809 88.722915 18.514374 89.829762 17.837891 90.882812 C 18.167914 88.969172 19.423819 89.367599 20.5 87 z M 38.5 87 C 36.42652 87 35.670329 88.521842 35.392578 89.888672 C 35.068703 88.927942 34.452639 88 33.25 88 C 33.25 89.766294 34.807317 88.809172 35.171875 90.970703 C 34.518685 89.980157 33.484428 89.027371 33 92 C 33.693789 91.763481 34.389247 89.786438 35.238281 91.685547 C 35.242481 91.789815 35.25 91.885289 35.25 92 L 35 95 L 36 95 L 35.75 92 C 35.77344 91.92969 35.790654 91.856262 35.808594 91.783203 C 35.852244 91.805733 36.212494 92.023206 36.808594 92.398438 A 0.625 1.125 0 0 0 36.75 92.875 A 0.625 1.125 0 0 0 37.375 94 A 0.625 1.125 0 0 0 38 92.875 A 0.625 1.125 0 0 0 37.375 91.75 A 0.625 1.125 0 0 0 37.154297 91.822266 C 36.740851 91.227616 36.349533 91.092593 36.03125 91.15625 C 36.304688 90.746094 36.96875 90.53125 39 91 C 37.698809 88.722915 36.514374 89.829762 35.837891 90.882812 C 36.167914 88.969172 37.423819 89.367599 38.5 87 z M 56.5 87 C 54.42652 87 53.670329 88.521842 53.392578 89.888672 C 53.068703 88.927942 52.452639 88 51.25 88 C 51.25 89.766294 52.807317 88.809172 53.171875 90.970703 C 52.518685 89.980157 51.484428 89.027371 51 92 C 51.693789 91.763481 52.389247 89.786438 53.238281 91.685547 C 53.242481 91.789815 53.25 91.885289 53.25 92 L 53 95 L 54 95 L 53.75 92 C 53.77344 91.92969 53.790654 91.856262 53.808594 91.783203 C 53.852244 91.805733 54.212494 92.023206 54.808594 92.398438 A 0.625 1.125 0 0 0 54.75 92.875 A 0.625 1.125 0 0 0 55.375 94 A 0.625 1.125 0 0 0 56 92.875 A 0.625 1.125 0 0 0 55.375 91.75 A 0.625 1.125 0 0 0 55.154297 91.822266 C 54.740851 91.227616 54.349533 91.092593 54.03125 91.15625 C 54.304688 90.746094 54.96875 90.53125 57 91 C 55.698809 88.722915 54.514374 89.829762 53.837891 90.882812 C 54.167914 88.969172 55.423819 89.367599 56.5 87 z M 75.5 87 C 73.42652 87 72.670329 88.521842 72.392578 89.888672 C 72.068703 88.927942 71.452639 88 70.25 88 C 70.25 89.766294 71.807317 88.809172 72.171875 90.970703 C 71.518685 89.980157 70.484428 89.027371 70 92 C 70.693789 91.763481 71.389247 89.786438 72.238281 91.685547 C 72.242481 91.789815 72.25 91.885289 72.25 92 L 72 95 L 73 95 L 72.75 92 C 72.77344 91.92969 72.790654 91.856262 72.808594 91.783203 C 72.852244 91.805733 73.212494 92.023206 73.808594 92.398438 A 0.625 1.125 0 0 0 73.75 92.875 A 0.625 1.125 0 0 0 74.375 94 A 0.625 1.125 0 0 0 75 92.875 A 0.625 1.125 0 0 0 74.375 91.75 A 0.625 1.125 0 0 0 74.154297 91.822266 C 73.740851 91.227616 73.349533 91.092593 73.03125 91.15625 C 73.304688 90.746094 73.96875 90.53125 76 91 C 74.698809 88.722915 73.514374 89.829762 72.837891 90.882812 C 73.167914 88.969172 74.423819 89.367599 75.5 87 z M 93.5 87 C 91.42652 87 90.670329 88.521842 90.392578 89.888672 C 90.068703 88.927942 89.452639 88 88.25 88 C 88.25 89.766294 89.807317 88.809172 90.171875 90.970703 C 89.518685 89.980157 88.484428 89.027371 88 92 C 88.693789 91.763481 89.389247 89.786438 90.238281 91.685547 C 90.242481 91.789815 90.25 91.885289 90.25 92 L 90 95 L 91 95 L 90.75 92 C 90.77344 91.92969 90.790654 91.856262 90.808594 91.783203 C 90.852244 91.805733 91.212494 92.023206 91.808594 92.398438 A 0.625 1.125 0 0 0 91.75 92.875 A 0.625 1.125 0 0 0 92.375 94 A 0.625 1.125 0 0 0 93 92.875 A 0.625 1.125 0 0 0 92.375 91.75 A 0.625 1.125 0 0 0 92.154297 91.822266 C 91.740851 91.227616 91.349533 91.092593 91.03125 91.15625 C 91.304688 90.746094 91.96875 90.53125 94 91 C 92.698809 88.722915 91.514374 89.829762 90.837891 90.882812 C 91.167914 88.969172 92.423819 89.367599 93.5 87 z M 111.5 87 C 109.42652 87 108.67033 88.521842 108.39258 89.888672 C 108.0687 88.927942 107.45264 88 106.25 88 C 106.25 89.766294 107.80732 88.809172 108.17188 90.970703 C 107.51869 89.980157 106.48443 89.027371 106 92 C 106.69379 91.763481 107.38925 89.786438 108.23828 91.685547 C 108.24228 91.789815 108.25 91.885289 108.25 92 L 108 95 L 109 95 L 108.75 92 C 108.7734 91.92969 108.79059 91.856262 108.80859 91.783203 C 108.85219 91.805733 109.21249 92.023206 109.80859 92.398438 A 0.625 1.125 0 0 0 109.75 92.875 A 0.625 1.125 0 0 0 110.375 94 A 0.625 1.125 0 0 0 111 92.875 A 0.625 1.125 0 0 0 110.375 91.75 A 0.625 1.125 0 0 0 110.1543 91.822266 C 109.74085 91.227616 109.34953 91.092593 109.03125 91.15625 C 109.30469 90.746094 109.96875 90.53125 112 91 C 110.69881 88.722915 109.51437 89.829762 108.83789 90.882812 C 109.16791 88.969172 110.42382 89.367599 111.5 87 z M 125.25 88 C 125.25 89.766294 126.80732 88.809172 127.17188 90.970703 C 126.51869 89.980157 125.48443 89.027371 125 92 C 125.69379 91.763481 126.38925 89.786438 127.23828 91.685547 C 127.24228 91.789815 127.25 91.885289 127.25 92 L 127 95 L 128 95 L 127.75 92 C 127.7734 91.92969 127.79059 91.856262 127.80859 91.783203 C 127.81693 91.78751 127.96909 91.882098 128 91.900391 L 128 90.654297 C 127.94527 90.730511 127.88734 90.80583 127.83789 90.882812 C 127.87862 90.646615 127.93313 90.446784 128 90.271484 L 128 88.306641 C 127.69093 88.790614 127.50197 89.350343 127.39258 89.888672 C 127.0687 88.927942 126.45264 88 125.25 88 z M 1.6054688 89.685547 C 0.96603579 89.562713 0.41318184 90.078921 0 90.654297 L 0 91.900391 C 0.13082021 91.977796 0.32643879 92.094932 0.80859375 92.398438 A 0.625 1.125 0 0 0 0.75 92.875 A 0.625 1.125 0 0 0 1.375 94 A 0.625 1.125 0 0 0 2 92.875 A 0.625 1.125 0 0 0 1.375 91.75 A 0.625 1.125 0 0 0 1.1542969 91.822266 C 0.74085188 91.227616 0.349533 91.092593 0.03125 91.15625 C 0.304688 90.746094 0.96875 90.53125 3 91 C 2.5120534 90.146093 2.0399483 89.769009 1.6054688 89.685547 z M 11.5 96 C 9.42652 96 8.6703291 97.521842 8.3925781 98.888672 C 8.0687031 97.927942 7.452639 97 6.25 97 C 6.25 98.766294 7.807317 97.809172 8.171875 99.970703 C 7.518685 98.980157 6.484428 98.027371 6 101 C 6.693789 100.76348 7.3892473 98.786435 8.2382812 100.68555 C 8.2424813 100.78982 8.25 100.88529 8.25 101 L 8 104 L 9 104 L 8.75 101 C 8.77344 100.9297 8.7906537 100.85626 8.8085938 100.7832 C 8.8522437 100.8057 9.2124938 101.02321 9.8085938 101.39844 A 0.625 1.125 0 0 0 9.75 101.875 A 0.625 1.125 0 0 0 10.375 103 A 0.625 1.125 0 0 0 11 101.875 A 0.625 1.125 0 0 0 10.375 100.75 A 0.625 1.125 0 0 0 10.154297 100.82227 C 9.7408519 100.22759 9.349533 100.09259 9.03125 100.15625 C 9.304688 99.746094 9.96875 99.53125 12 100 C 10.698809 97.722915 9.5143736 98.829762 8.8378906 99.882812 C 9.1679136 97.969172 10.423819 98.367599 11.5 96 z M 29.5 96 C 27.42652 96 26.670329 97.521842 26.392578 98.888672 C 26.068703 97.927942 25.452639 97 24.25 97 C 24.25 98.766294 25.807317 97.809172 26.171875 99.970703 C 25.518685 98.980157 24.484428 98.027371 24 101 C 24.693789 100.76348 25.389247 98.786435 26.238281 100.68555 C 26.242481 100.78982 26.25 100.88529 26.25 101 L 26 104 L 27 104 L 26.75 101 C 26.77344 100.9297 26.790654 100.85626 26.808594 100.7832 C 26.852244 100.8057 27.212494 101.02321 27.808594 101.39844 A 0.625 1.125 0 0 0 27.75 101.875 A 0.625 1.125 0 0 0 28.375 103 A 0.625 1.125 0 0 0 29 101.875 A 0.625 1.125 0 0 0 28.375 100.75 A 0.625 1.125 0 0 0 28.154297 100.82227 C 27.740852 100.22762 27.349533 100.09259 27.03125 100.15625 C 27.304688 99.746094 27.96875 99.53125 30 100 C 28.698808 97.722885 27.514374 98.829761 26.837891 99.882812 C 27.167914 97.969172 28.423819 98.367599 29.5 96 z M 47.5 96 C 45.42652 96 44.670329 97.521842 44.392578 98.888672 C 44.068703 97.927942 43.452639 97 42.25 97 C 42.25 98.766294 43.807317 97.809172 44.171875 99.970703 C 43.518685 98.980157 42.484428 98.027371 42 101 C 42.693789 100.76348 43.389247 98.786435 44.238281 100.68555 C 44.242481 100.78982 44.25 100.88529 44.25 101 L 44 104 L 45 104 L 44.75 101 C 44.77344 100.9297 44.790654 100.85626 44.808594 100.7832 C 44.852244 100.8057 45.212494 101.02321 45.808594 101.39844 A 0.625 1.125 0 0 0 45.75 101.875 A 0.625 1.125 0 0 0 46.375 103 A 0.625 1.125 0 0 0 47 101.875 A 0.625 1.125 0 0 0 46.375 100.75 A 0.625 1.125 0 0 0 46.154297 100.82227 C 45.740852 100.22762 45.349533 100.09259 45.03125 100.15625 C 45.304688 99.746094 45.96875 99.53125 48 100 C 46.698808 97.722885 45.514374 98.829761 44.837891 99.882812 C 45.167914 97.969172 46.423819 98.367599 47.5 96 z M 66.5 96 C 64.42652 96 63.670329 97.521842 63.392578 98.888672 C 63.068703 97.927942 62.452639 97 61.25 97 C 61.25 98.766294 62.807317 97.809172 63.171875 99.970703 C 62.518685 98.980157 61.484428 98.027371 61 101 C 61.693789 100.76348 62.389247 98.786435 63.238281 100.68555 C 63.242481 100.78982 63.25 100.88529 63.25 101 L 63 104 L 64 104 L 63.75 101 C 63.77344 100.9297 63.790654 100.85626 63.808594 100.7832 C 63.852244 100.8057 64.212494 101.02321 64.808594 101.39844 A 0.625 1.125 0 0 0 64.75 101.875 A 0.625 1.125 0 0 0 65.375 103 A 0.625 1.125 0 0 0 66 101.875 A 0.625 1.125 0 0 0 65.375 100.75 A 0.625 1.125 0 0 0 65.154297 100.82227 C 64.740852 100.22762 64.349533 100.09259 64.03125 100.15625 C 64.304688 99.746094 64.96875 99.53125 67 100 C 65.698808 97.722885 64.514374 98.829761 63.837891 99.882812 C 64.167914 97.969172 65.423819 98.367599 66.5 96 z M 84.5 96 C 82.42652 96 81.670329 97.521842 81.392578 98.888672 C 81.068703 97.927942 80.452639 97 79.25 97 C 79.25 98.766294 80.807317 97.809172 81.171875 99.970703 C 80.518685 98.980157 79.484428 98.027371 79 101 C 79.693789 100.76348 80.389247 98.786435 81.238281 100.68555 C 81.242481 100.78982 81.25 100.88529 81.25 101 L 81 104 L 82 104 L 81.75 101 C 81.77344 100.9297 81.790654 100.85626 81.808594 100.7832 C 81.852244 100.8057 82.212494 101.02321 82.808594 101.39844 A 0.625 1.125 0 0 0 82.75 101.875 A 0.625 1.125 0 0 0 83.375 103 A 0.625 1.125 0 0 0 84 101.875 A 0.625 1.125 0 0 0 83.375 100.75 A 0.625 1.125 0 0 0 83.154297 100.82227 C 82.740852 100.22762 82.349533 100.09259 82.03125 100.15625 C 82.304688 99.746094 82.96875 99.53125 85 100 C 83.698808 97.722885 82.514374 98.829761 81.837891 99.882812 C 82.167914 97.969172 83.423819 98.367599 84.5 96 z M 102.5 96 C 100.42652 96 99.670329 97.521842 99.392578 98.888672 C 99.068703 97.927942 98.452639 97 97.25 97 C 97.25 98.766294 98.807317 97.809172 99.171875 99.970703 C 98.518685 98.980157 97.484428 98.027371 97 101 C 97.693789 100.76348 98.389247 98.786435 99.238281 100.68555 C 99.242481 100.78982 99.25 100.88529 99.25 101 L 99 104 L 100 104 L 99.75 101 C 99.77344 100.9297 99.790654 100.85626 99.808594 100.7832 C 99.852244 100.8057 100.21249 101.02321 100.80859 101.39844 A 0.625 1.125 0 0 0 100.75 101.875 A 0.625 1.125 0 0 0 101.375 103 A 0.625 1.125 0 0 0 102 101.875 A 0.625 1.125 0 0 0 101.375 100.75 A 0.625 1.125 0 0 0 101.1543 100.82227 C 100.74085 100.22762 100.34953 100.09259 100.03125 100.15625 C 100.3047 99.746064 100.96875 99.53125 103 100 C 101.69881 97.722915 100.51437 98.829762 99.837891 99.882812 C 100.16791 97.969172 101.42382 98.367599 102.5 96 z M 120.5 96 C 118.42652 96 117.67033 97.521842 117.39258 98.888672 C 117.0687 97.927942 116.45264 97 115.25 97 C 115.25 98.766294 116.80732 97.809172 117.17188 99.970703 C 116.51869 98.980157 115.48443 98.027371 115 101 C 115.69379 100.76348 116.38925 98.786435 117.23828 100.68555 C 117.24228 100.78982 117.25 100.88529 117.25 101 L 117 104 L 118 104 L 117.75 101 C 117.7734 100.9297 117.79059 100.85626 117.80859 100.7832 C 117.85219 100.8057 118.21249 101.02321 118.80859 101.39844 A 0.625 1.125 0 0 0 118.75 101.875 A 0.625 1.125 0 0 0 119.375 103 A 0.625 1.125 0 0 0 120 101.875 A 0.625 1.125 0 0 0 119.375 100.75 A 0.625 1.125 0 0 0 119.1543 100.82227 C 118.74085 100.22762 118.34953 100.09259 118.03125 100.15625 C 118.30469 99.746094 118.96875 99.53125 121 100 C 119.69881 97.722915 118.51437 98.829762 117.83789 99.882812 C 118.16793 97.969142 119.42382 98.367599 120.5 96 z M 2.5 105 C 1.2431641 105 0.47566969 105.56179 0 106.30664 L 0 108.27148 C 0.47487389 107.02653 1.5566505 107.07537 2.5 105 z M 20.5 105 C 18.42652 105 17.670329 106.52184 17.392578 107.88867 C 17.068703 106.92794 16.452639 106 15.25 106 C 15.25 107.76629 16.807317 106.80917 17.171875 108.9707 C 16.518685 107.98016 15.484428 107.02737 15 110 C 15.693789 109.76348 16.389247 107.78644 17.238281 109.68555 C 17.242481 109.78982 17.25 109.88529 17.25 110 L 17 113 L 18 113 L 17.75 110 C 17.77344 109.9297 17.790654 109.85626 17.808594 109.7832 C 17.852244 109.8057 18.212494 110.02321 18.808594 110.39844 A 0.625 1.125 0 0 0 18.75 110.875 A 0.625 1.125 0 0 0 19.375 112 A 0.625 1.125 0 0 0 20 110.875 A 0.625 1.125 0 0 0 19.375 109.75 A 0.625 1.125 0 0 0 19.154297 109.82227 C 18.740852 109.22762 18.349533 109.09259 18.03125 109.15625 C 18.304688 108.74609 18.96875 108.53125 21 109 C 19.698809 106.72292 18.514374 107.82976 17.837891 108.88281 C 18.167914 106.96917 19.423819 107.3676 20.5 105 z M 38.5 105 C 36.42652 105 35.670329 106.52184 35.392578 107.88867 C 35.068703 106.92794 34.452639 106 33.25 106 C 33.25 107.76629 34.807317 106.80917 35.171875 108.9707 C 34.518685 107.98016 33.484428 107.02737 33 110 C 33.693789 109.76348 34.389247 107.78644 35.238281 109.68555 C 35.242481 109.78982 35.25 109.88529 35.25 110 L 35 113 L 36 113 L 35.75 110 C 35.77344 109.9297 35.790654 109.85626 35.808594 109.7832 C 35.852244 109.8057 36.212494 110.02321 36.808594 110.39844 A 0.625 1.125 0 0 0 36.75 110.875 A 0.625 1.125 0 0 0 37.375 112 A 0.625 1.125 0 0 0 38 110.875 A 0.625 1.125 0 0 0 37.375 109.75 A 0.625 1.125 0 0 0 37.154297 109.82227 C 36.740852 109.22762 36.349533 109.09259 36.03125 109.15625 C 36.304688 108.74609 36.96875 108.53125 39 109 C 37.698809 106.72292 36.514374 107.82976 35.837891 108.88281 C 36.167914 106.96917 37.423819 107.3676 38.5 105 z M 56.5 105 C 54.42652 105 53.670329 106.52184 53.392578 107.88867 C 53.068703 106.92794 52.452639 106 51.25 106 C 51.25 107.76629 52.807317 106.80917 53.171875 108.9707 C 52.518685 107.98016 51.484428 107.02737 51 110 C 51.693789 109.76348 52.389247 107.78644 53.238281 109.68555 C 53.242481 109.78982 53.25 109.88529 53.25 110 L 53 113 L 54 113 L 53.75 110 C 53.77344 109.9297 53.790654 109.85626 53.808594 109.7832 C 53.852244 109.8057 54.212494 110.02321 54.808594 110.39844 A 0.625 1.125 0 0 0 54.75 110.875 A 0.625 1.125 0 0 0 55.375 112 A 0.625 1.125 0 0 0 56 110.875 A 0.625 1.125 0 0 0 55.375 109.75 A 0.625 1.125 0 0 0 55.154297 109.82227 C 54.740852 109.22762 54.349533 109.09259 54.03125 109.15625 C 54.304688 108.74609 54.96875 108.53125 57 109 C 55.698809 106.72292 54.514374 107.82976 53.837891 108.88281 C 54.167914 106.96917 55.423819 107.3676 56.5 105 z M 75.5 105 C 73.42652 105 72.670329 106.52184 72.392578 107.88867 C 72.068703 106.92794 71.452639 106 70.25 106 C 70.25 107.76629 71.807317 106.80917 72.171875 108.9707 C 71.518685 107.98016 70.484428 107.02737 70 110 C 70.693789 109.76348 71.389247 107.78644 72.238281 109.68555 C 72.242481 109.78982 72.25 109.88529 72.25 110 L 72 113 L 73 113 L 72.75 110 C 72.77344 109.9297 72.790654 109.85626 72.808594 109.7832 C 72.852244 109.8057 73.212494 110.02321 73.808594 110.39844 A 0.625 1.125 0 0 0 73.75 110.875 A 0.625 1.125 0 0 0 74.375 112 A 0.625 1.125 0 0 0 75 110.875 A 0.625 1.125 0 0 0 74.375 109.75 A 0.625 1.125 0 0 0 74.154297 109.82227 C 73.740852 109.22762 73.349533 109.09259 73.03125 109.15625 C 73.304688 108.74609 73.96875 108.53125 76 109 C 74.698809 106.72292 73.514374 107.82976 72.837891 108.88281 C 73.167914 106.96917 74.423819 107.3676 75.5 105 z M 93.5 105 C 91.42652 105 90.670329 106.52184 90.392578 107.88867 C 90.068703 106.92794 89.452639 106 88.25 106 C 88.25 107.76629 89.807317 106.80917 90.171875 108.9707 C 89.518685 107.98016 88.484428 107.02737 88 110 C 88.693789 109.76348 89.389247 107.78644 90.238281 109.68555 C 90.242481 109.78982 90.25 109.88529 90.25 110 L 90 113 L 91 113 L 90.75 110 C 90.77344 109.9297 90.790654 109.85626 90.808594 109.7832 C 90.852244 109.8057 91.212494 110.02321 91.808594 110.39844 A 0.625 1.125 0 0 0 91.75 110.875 A 0.625 1.125 0 0 0 92.375 112 A 0.625 1.125 0 0 0 93 110.875 A 0.625 1.125 0 0 0 92.375 109.75 A 0.625 1.125 0 0 0 92.154297 109.82227 C 91.740852 109.22762 91.349533 109.09259 91.03125 109.15625 C 91.304688 108.74609 91.96875 108.53125 94 109 C 92.698809 106.72292 91.514374 107.82976 90.837891 108.88281 C 91.167914 106.96917 92.423819 107.3676 93.5 105 z M 111.5 105 C 109.42652 105 108.67033 106.52184 108.39258 107.88867 C 108.0687 106.92794 107.45264 106 106.25 106 C 106.25 107.76629 107.80732 106.80917 108.17188 108.9707 C 107.51869 107.98016 106.48443 107.02737 106 110 C 106.69379 109.76348 107.38925 107.78644 108.23828 109.68555 C 108.24228 109.78982 108.25 109.88529 108.25 110 L 108 113 L 109 113 L 108.75 110 C 108.7734 109.9297 108.79059 109.85626 108.80859 109.7832 C 108.85219 109.8057 109.21249 110.02321 109.80859 110.39844 A 0.625 1.125 0 0 0 109.75 110.875 A 0.625 1.125 0 0 0 110.375 112 A 0.625 1.125 0 0 0 111 110.875 A 0.625 1.125 0 0 0 110.375 109.75 A 0.625 1.125 0 0 0 110.1543 109.82227 C 109.74085 109.22762 109.34953 109.09259 109.03125 109.15625 C 109.30469 108.74609 109.96875 108.53125 112 109 C 110.69881 106.72292 109.51437 107.82976 108.83789 108.88281 C 109.16791 106.96917 110.42382 107.3676 111.5 105 z M 125.25 106 C 125.25 107.76629 126.80732 106.80917 127.17188 108.9707 C 126.51869 107.98016 125.48443 107.02737 125 110 C 125.69379 109.76348 126.38925 107.78644 127.23828 109.68555 C 127.24228 109.78982 127.25 109.88529 127.25 110 L 127 113 L 128 113 L 127.75 110 C 127.7734 109.9297 127.79059 109.85626 127.80859 109.7832 C 127.81693 109.7875 127.96909 109.8821 128 109.90039 L 128 108.6543 C 127.94527 108.73051 127.88734 108.80583 127.83789 108.88281 C 127.87862 108.64661 127.93313 108.44678 128 108.27148 L 128 106.30664 C 127.69093 106.79061 127.50197 107.35034 127.39258 107.88867 C 127.0687 106.92794 126.45264 106 125.25 106 z M 1.6054688 107.68555 C 0.96603579 107.56271 0.41318184 108.07892 0 108.6543 L 0 109.90039 C 0.13082021 109.97779 0.32643879 110.09493 0.80859375 110.39844 A 0.625 1.125 0 0 0 0.75 110.875 A 0.625 1.125 0 0 0 1.375 112 A 0.625 1.125 0 0 0 2 110.875 A 0.625 1.125 0 0 0 1.375 109.75 A 0.625 1.125 0 0 0 1.1542969 109.82227 C 0.74085187 109.22759 0.349533 109.09259 0.03125 109.15625 C 0.304688 108.74609 0.96875 108.53125 3 109 C 2.5120534 108.1461 2.0399483 107.76901 1.6054688 107.68555 z M 11.5 114 C 9.42652 114 8.6703291 115.52184 8.3925781 116.88867 C 8.0687031 115.92794 7.452639 115 6.25 115 C 6.25 116.76629 7.807317 115.80917 8.171875 117.9707 C 7.518685 116.98016 6.484428 116.02737 6 119 C 6.693789 118.76348 7.3892473 116.78644 8.2382812 118.68555 C 8.2424813 118.78982 8.25 118.88529 8.25 119 L 8 122 L 9 122 L 8.75 119 C 8.77344 118.9297 8.7906537 118.85626 8.8085938 118.7832 C 8.8522437 118.8057 9.2124938 119.02321 9.8085938 119.39844 A 0.625 1.125 0 0 0 9.75 119.875 A 0.625 1.125 0 0 0 10.375 121 A 0.625 1.125 0 0 0 11 119.875 A 0.625 1.125 0 0 0 10.375 118.75 A 0.625 1.125 0 0 0 10.154297 118.82227 C 9.7408519 118.22762 9.349533 118.09259 9.03125 118.15625 C 9.304688 117.74609 9.96875 117.53125 12 118 C 10.698809 115.72292 9.5143736 116.82976 8.8378906 117.88281 C 9.1679136 115.96917 10.423819 116.3676 11.5 114 z M 29.5 114 C 27.42652 114 26.670329 115.52184 26.392578 116.88867 C 26.068703 115.92794 25.452639 115 24.25 115 C 24.25 116.76629 25.807317 115.80917 26.171875 117.9707 C 25.518685 116.98016 24.484428 116.02737 24 119 C 24.693789 118.76348 25.389247 116.78644 26.238281 118.68555 C 26.242481 118.78982 26.25 118.88529 26.25 119 L 26 122 L 27 122 L 26.75 119 C 26.77344 118.9297 26.790654 118.85626 26.808594 118.7832 C 26.852244 118.8057 27.212494 119.02321 27.808594 119.39844 A 0.625 1.125 0 0 0 27.75 119.875 A 0.625 1.125 0 0 0 28.375 121 A 0.625 1.125 0 0 0 29 119.875 A 0.625 1.125 0 0 0 28.375 118.75 A 0.625 1.125 0 0 0 28.154297 118.82227 C 27.740852 118.22762 27.349533 118.09259 27.03125 118.15625 C 27.304688 117.74609 27.96875 117.53125 30 118 C 28.698809 115.72292 27.514374 116.82976 26.837891 117.88281 C 27.167914 115.96917 28.423819 116.3676 29.5 114 z M 47.5 114 C 45.42652 114 44.670329 115.52184 44.392578 116.88867 C 44.068703 115.92794 43.452639 115 42.25 115 C 42.25 116.76629 43.807317 115.80917 44.171875 117.9707 C 43.518685 116.98016 42.484428 116.02737 42 119 C 42.693789 118.76348 43.389247 116.78644 44.238281 118.68555 C 44.242481 118.78982 44.25 118.88529 44.25 119 L 44 122 L 45 122 L 44.75 119 C 44.77344 118.9297 44.790654 118.85626 44.808594 118.7832 C 44.852244 118.8057 45.212494 119.02321 45.808594 119.39844 A 0.625 1.125 0 0 0 45.75 119.875 A 0.625 1.125 0 0 0 46.375 121 A 0.625 1.125 0 0 0 47 119.875 A 0.625 1.125 0 0 0 46.375 118.75 A 0.625 1.125 0 0 0 46.154297 118.82227 C 45.740852 118.22762 45.349533 118.09259 45.03125 118.15625 C 45.304688 117.74609 45.96875 117.53125 48 118 C 46.698809 115.72292 45.514374 116.82976 44.837891 117.88281 C 45.167914 115.96917 46.423819 116.3676 47.5 114 z M 66.5 114 C 64.42652 114 63.670329 115.52184 63.392578 116.88867 C 63.068703 115.92794 62.452639 115 61.25 115 C 61.25 116.76629 62.807317 115.80917 63.171875 117.9707 C 62.518685 116.98016 61.484428 116.02737 61 119 C 61.693789 118.76348 62.389247 116.78644 63.238281 118.68555 C 63.242481 118.78982 63.25 118.88529 63.25 119 L 63 122 L 64 122 L 63.75 119 C 63.77344 118.9297 63.790654 118.85626 63.808594 118.7832 C 63.852244 118.8057 64.212494 119.02321 64.808594 119.39844 A 0.625 1.125 0 0 0 64.75 119.875 A 0.625 1.125 0 0 0 65.375 121 A 0.625 1.125 0 0 0 66 119.875 A 0.625 1.125 0 0 0 65.375 118.75 A 0.625 1.125 0 0 0 65.154297 118.82227 C 64.740852 118.22762 64.349533 118.09259 64.03125 118.15625 C 64.304688 117.74609 64.96875 117.53125 67 118 C 65.698809 115.72292 64.514374 116.82976 63.837891 117.88281 C 64.167914 115.96917 65.423819 116.3676 66.5 114 z M 84.5 114 C 82.42652 114 81.670329 115.52184 81.392578 116.88867 C 81.068703 115.92794 80.452639 115 79.25 115 C 79.25 116.76629 80.807317 115.80917 81.171875 117.9707 C 80.518685 116.98016 79.484428 116.02737 79 119 C 79.693789 118.76348 80.389247 116.78644 81.238281 118.68555 C 81.242481 118.78982 81.25 118.88529 81.25 119 L 81 122 L 82 122 L 81.75 119 C 81.77344 118.9297 81.790654 118.85626 81.808594 118.7832 C 81.852244 118.8057 82.212494 119.02321 82.808594 119.39844 A 0.625 1.125 0 0 0 82.75 119.875 A 0.625 1.125 0 0 0 83.375 121 A 0.625 1.125 0 0 0 84 119.875 A 0.625 1.125 0 0 0 83.375 118.75 A 0.625 1.125 0 0 0 83.154297 118.82227 C 82.740852 118.22762 82.349533 118.09259 82.03125 118.15625 C 82.304688 117.74609 82.96875 117.53125 85 118 C 83.698809 115.72292 82.514374 116.82976 81.837891 117.88281 C 82.167914 115.96917 83.423819 116.3676 84.5 114 z M 102.5 114 C 100.42652 114 99.670329 115.52184 99.392578 116.88867 C 99.068703 115.92794 98.452639 115 97.25 115 C 97.25 116.76629 98.807317 115.80917 99.171875 117.9707 C 98.518685 116.98016 97.484428 116.02737 97 119 C 97.693789 118.76348 98.389247 116.78644 99.238281 118.68555 C 99.242481 118.78982 99.25 118.88529 99.25 119 L 99 122 L 100 122 L 99.75 119 C 99.77344 118.9297 99.790654 118.85626 99.808594 118.7832 C 99.852244 118.8057 100.21249 119.02321 100.80859 119.39844 A 0.625 1.125 0 0 0 100.75 119.875 A 0.625 1.125 0 0 0 101.375 121 A 0.625 1.125 0 0 0 102 119.875 A 0.625 1.125 0 0 0 101.375 118.75 A 0.625 1.125 0 0 0 101.1543 118.82227 C 100.74085 118.22762 100.34953 118.09259 100.03125 118.15625 C 100.30469 117.74609 100.96875 117.53125 103 118 C 101.69881 115.72292 100.51437 116.82976 99.837891 117.88281 C 100.16791 115.96917 101.42382 116.3676 102.5 114 z M 120.5 114 C 118.42652 114 117.67033 115.52184 117.39258 116.88867 C 117.0687 115.92794 116.45264 115 115.25 115 C 115.25 116.76629 116.80732 115.80917 117.17188 117.9707 C 116.51869 116.98016 115.48443 116.02737 115 119 C 115.69379 118.76348 116.38925 116.78644 117.23828 118.68555 C 117.24228 118.78982 117.25 118.88529 117.25 119 L 117 122 L 118 122 L 117.75 119 C 117.7734 118.9297 117.79059 118.85626 117.80859 118.7832 C 117.85219 118.8057 118.21249 119.02321 118.80859 119.39844 A 0.625 1.125 0 0 0 118.75 119.875 A 0.625 1.125 0 0 0 119.375 121 A 0.625 1.125 0 0 0 120 119.875 A 0.625 1.125 0 0 0 119.375 118.75 A 0.625 1.125 0 0 0 119.1543 118.82227 C 118.74085 118.22762 118.34953 118.09259 118.03125 118.15625 C 118.30469 117.74609 118.96875 117.53125 121 118 C 119.69881 115.72292 118.51437 116.82976 117.83789 117.88281 C 118.16791 115.96917 119.42382 116.3676 120.5 114 z " style="fill:#93c989" />
  <rect
     style="fill:none;fill-opacity:1;stroke:none"
     id="rect8566"
     y="0"
     x="0"
     rx="0"
     height="128"
     width="128" />
  <desc
     id="desc506">Created with Snap</desc>
</svg>
